<svg width="48" height="44" viewBox="0 0 48 44" fill="none" xmlns="http://www.w3.org/2000/svg">
<g clip-path="url(#clip0)">
<path d="M4.57844 39.4851C4.57844 40.8046 3.13629 41.509 2.04346 40.9361V40.8542C2.04346 40.8542 3.47812 41.1618 3.86984 39.9217C3.90976 39.8001 3.92972 39.5893 3.92473 39.3983C3.90228 38.6022 3.49059 38.0714 2.74956 38.0714H1.74654V43.2452C1.75153 43.5478 1.99854 43.7909 2.30544 43.7909H2.41522L2.41771 43.8777H0.508993L0.511488 43.7909H0.62127C0.925668 43.7909 1.17268 43.5478 1.18016 43.2452V38.3963C1.15272 38.116 0.913193 37.8978 0.623765 37.8978H0.513983L0.511488 37.811H2.78199C3.89729 37.8134 4.57844 38.4484 4.57844 39.4851ZM17.1311 39.7456C16.8566 39.4926 16.7793 39.1726 16.7793 38.9469C16.7793 38.4186 17.2084 37.9498 17.8522 37.9498C18.3961 37.9498 18.8352 38.2872 18.8327 38.8427H18.9176V37.7787H18.5732C18.3412 37.7291 18.0543 37.6894 17.8247 37.6894C16.8317 37.6894 16.2928 38.4236 16.2928 39.1528C16.2928 39.4876 16.4125 39.9068 16.7643 40.2267L18.4335 41.767C18.6506 41.9679 18.7753 42.2358 18.7753 42.5756C18.7753 43.2676 18.2439 43.7016 17.6076 43.7363C16.8317 43.7785 16.2628 43.208 16.3501 42.3151H16.2728C16.1406 42.7045 16.1081 43.2551 16.173 43.523C16.5148 43.8752 17.2209 43.9967 17.6476 43.9967C18.6506 43.9967 19.2793 43.3345 19.2793 42.3771C19.2793 42.0274 19.1895 41.6405 18.8427 41.3205L17.1311 39.7456ZM13.618 43.6123H12.368V41.0155H13.8501C14.0796 41.0254 14.2618 41.2114 14.2618 41.4421V41.5686H14.3466V40.197H14.2618V40.3235C14.2618 40.5566 14.0746 40.7451 13.8401 40.7501H12.368V38.0714H14.1445C14.4165 38.0887 14.6335 38.312 14.6335 38.5873V38.7411H14.7209V38.0466V37.9027V37.6497C14.5587 37.7167 14.0572 37.8035 13.6829 37.8085H11.1355L11.138 37.8953H11.2477C11.5372 37.8953 11.8016 38.1135 11.8016 38.3913V43.2427C11.7967 43.5453 11.5471 43.7884 11.2427 43.7884H11.133L11.1305 43.8752H14.7458L15.2548 42.4763H15.1675C14.898 43.1361 14.5412 43.6123 13.618 43.6123ZM13.9973 22.9517C13.9973 22.3886 14.4489 21.9347 15.0128 21.9223H20.8712L18.8153 25.1393C18.9675 25.1169 19.1271 25.1442 19.2868 25.2385C19.5039 25.3674 19.6686 25.6427 19.6786 25.9106L22.5953 21.3271V21.1783C22.3907 21.2849 21.455 21.4015 20.7564 21.4015H15.911C15.1949 21.404 14.1395 21.2229 13.8226 21.089V23.2617L13.9973 23.2592V22.9517ZM23.2415 30.834H23.0693C22.74 32.0369 21.9915 32.9843 20.7015 32.9868H15.18L16.4125 31.0497C16.2878 30.9952 16.1705 30.9158 16.0632 30.7968C15.8486 30.5611 15.7588 30.2561 15.7488 29.9411L13.5806 33.3365L13.5781 33.4978H22.6701L23.2415 30.834ZM3.49309 33.4978H0V33.3241H0.157189C0.663686 33.3241 1.27498 33.0315 1.63427 32.3296L5.93326 22.0687C5.17975 20.9972 4.07444 20.3598 2.27799 21.0046L2.22809 20.831C6.29504 19.1196 7.51513 22.4234 8.37592 24.8515L10.4942 30.8166C11.4748 33.5821 13.4135 37.4637 16.5672 36.7916L16.5822 36.9627C13.8476 37.9647 11.0806 36.3079 9.31905 31.1365L8.64539 29.1623H3.88481L2.68219 32.2403C2.4277 32.9298 2.89427 33.3241 3.34089 33.3241H3.49309V33.4978ZM4.08691 28.6488H8.47073L7.09845 24.6234C6.89386 24.0231 6.66431 23.3907 6.37239 22.8152L4.08691 28.6488ZM9.78064 43.1336C9.44381 42.7665 8.69279 41.7 8.69279 41.7C8.52313 41.4619 8.25616 41.1767 8.06903 41.0899C8.90737 41.0899 9.5486 40.2763 9.5486 39.438C9.5486 38.4285 8.90238 37.811 7.84447 37.811H5.49413L5.49662 37.8978H5.6064C5.9108 37.8978 6.15781 38.1408 6.1653 38.4434V43.2502C6.15781 43.5503 5.9108 43.7909 5.6064 43.7909H5.49662L5.49413 43.8777H7.39786L7.39536 43.7909H7.28558C6.98118 43.7909 6.73417 43.5478 6.72669 43.2452V38.0813C6.83896 38.0863 7.36792 38.0639 7.81204 38.0887C8.46075 38.1235 8.87244 38.627 8.8924 39.4107C8.89739 39.6017 8.87493 39.8076 8.83751 39.9291C8.5905 40.7104 7.92931 40.817 7.4777 40.8294C7.21572 40.8369 7.01611 40.8319 7.01611 40.8319V40.9113C7.33548 40.9113 7.58998 41.2114 7.81703 41.4966C7.88439 41.581 8.86495 42.9997 8.96476 43.1187C9.23921 43.4437 9.67335 43.8777 10.4867 43.8777H10.9658V43.7909C10.4518 43.7859 10.13 43.5156 9.78064 43.1336ZM47.975 34.7776C47.9202 35.7747 47.748 36.7668 47.4685 37.7291C47.4361 37.8506 47.3962 37.9697 47.3563 38.0887L47.2365 38.4459C47.1442 38.6791 47.0569 38.9147 46.9521 39.1453C46.8448 39.3735 46.7475 39.6042 46.6227 39.8299C46.503 40.0556 46.3682 40.2813 46.2135 40.4971C45.8992 40.9287 45.4999 41.3404 44.951 41.5859C44.6791 41.7075 44.3896 41.7744 44.0902 41.7918C43.7933 41.8067 43.4814 41.7645 43.187 41.643C43.0398 41.5834 42.9001 41.4991 42.7703 41.4024C42.6431 41.3007 42.5283 41.1841 42.4385 41.0551C42.2539 40.7997 42.1441 40.5145 42.0817 40.2367C41.9644 39.6811 41.9994 39.128 42.1141 38.617C42.3462 37.5952 42.8053 36.7296 43.0248 35.8515C43.2494 34.971 43.2918 34.0409 43.0248 33.2076C43.0049 33.1456 42.9849 33.086 42.9625 33.0265C42.9126 33.2001 42.8477 33.3688 42.7679 33.5325C42.5408 34.0112 42.1765 34.4452 41.7075 34.7354C41.4704 34.8793 41.2034 34.9934 40.9315 35.043C40.6595 35.0951 40.3801 35.1149 40.1056 35.0827C39.8337 35.0504 39.5617 34.9884 39.3072 34.8768C39.0527 34.7652 38.8132 34.6188 38.6011 34.4279C38.394 34.2319 38.2194 33.9938 38.0996 33.7284C37.9823 33.4606 37.9324 33.1654 37.9374 32.8777C37.9399 32.5875 38.0148 32.3048 38.127 32.0468C38.2393 31.7889 38.3915 31.5508 38.5786 31.3449C38.9454 30.9307 39.4394 30.6231 39.9983 30.4966C40.2828 30.4371 40.5622 30.4297 40.8417 30.4545C41.1186 30.4842 41.3881 30.5562 41.6451 30.6554C41.917 30.7645 42.169 30.9084 42.4011 31.077C42.3637 30.9505 42.3162 30.824 42.2638 30.7025C42.1765 30.4966 42.0667 30.2957 41.942 30.1072C41.8172 29.9163 41.6775 29.7352 41.5228 29.5665C40.9065 28.882 40.1006 28.3636 39.2348 28.0064C38.3666 27.6493 37.4234 27.4608 36.4803 27.4558C36.4154 27.4558 36.353 27.4583 36.2882 27.4583C36.0012 27.5154 35.7193 27.5873 35.4424 27.6716C34.6938 27.8924 33.9653 28.1825 33.2292 28.4827C33.2068 28.4926 33.1818 28.5025 33.1569 28.5124L34.7188 32.2378C35.0706 33.0067 35.7118 33.3241 36.2433 33.3241H36.388V33.4978H32.4782V33.3266H32.6304C33.0795 33.3266 33.5436 32.9347 33.2891 32.2427L32.1788 29.3036C32.1788 29.3036 32.0715 29.1325 31.9867 28.9762C31.6499 29.1052 31.308 29.2292 30.9562 29.3384C30.1728 29.5839 29.3494 29.765 28.4961 29.7749C28.1144 29.7774 27.7301 29.7476 27.3509 29.6831L26.3379 32.2527C26.0934 32.9372 26.5549 33.3266 27.0016 33.3266H27.1538V33.4978H23.6607V33.3241H23.8179C24.3468 33.3241 24.988 33.0067 25.3374 32.2378L26.51 29.4698C26.3404 29.4128 26.1757 29.3483 26.011 29.2739C25.6218 29.0928 25.2575 28.8522 24.9431 28.5595C24.6238 28.2669 24.3643 27.9023 24.1871 27.5154C24.01 27.126 23.9052 26.7068 23.8827 26.2827C23.8628 25.8585 23.9276 25.4294 24.0948 25.0376C24.257 24.6457 24.5314 24.3009 24.8708 24.0554C25.2101 23.8123 25.6093 23.6635 26.0135 23.6213C25.7141 23.7156 25.4396 23.8619 25.2051 24.0455C25.2775 24.0405 25.3498 24.0529 25.4172 24.0727C25.3448 24.0529 25.2675 24.0455 25.1926 24.0554C25.1278 24.1075 25.0629 24.162 25.0055 24.2216C24.736 24.4944 24.5464 24.8193 24.4491 25.169C24.2495 25.8685 24.3842 26.6349 24.7236 27.2574C24.8932 27.5724 25.1128 27.8427 25.3848 28.0685C25.6567 28.2966 25.9686 28.4827 26.3004 28.624C26.4626 28.691 26.6273 28.748 26.797 28.7977L29.2746 22.9541C29.2746 22.9541 29.9183 21.5553 29.9183 21.1758H30.0755L32.8849 27.875C33.1095 27.7882 33.3365 27.7014 33.5661 27.6195C34.0276 27.4533 34.4992 27.3021 34.9858 27.1979C35.4748 27.0912 35.9738 27.0342 36.4728 27.0292C37.4733 27.0168 38.4763 27.1954 39.412 27.5575C40.3451 27.9196 41.2209 28.4628 41.917 29.2094C42.0917 29.3954 42.2514 29.5963 42.3961 29.8071C42.5408 30.0179 42.668 30.2437 42.7753 30.4793C42.8826 30.7149 42.97 30.9605 43.0248 31.2184C43.0648 31.392 43.0897 31.5706 43.1022 31.7467C43.3966 32.1088 43.6212 32.523 43.7659 32.9645C43.9355 33.468 44.0054 33.9963 44.0054 34.5147C44.0029 35.0331 43.9355 35.5465 43.8133 36.0425C43.5688 37.0446 43.1222 37.9176 42.94 38.7907C42.8452 39.2222 42.8302 39.6563 42.9151 40.0457C42.96 40.2367 43.0323 40.4128 43.1346 40.5492C43.2344 40.6856 43.3592 40.7798 43.5164 40.8443C43.8283 40.9708 44.2474 40.9435 44.5892 40.7873C44.7564 40.7129 44.9261 40.5963 45.0733 40.4599C45.2255 40.3235 45.3602 40.1598 45.4875 39.9837C45.6122 39.8051 45.727 39.6141 45.8318 39.4132C45.9391 39.2123 46.0289 38.9965 46.1262 38.7882C46.221 38.5774 46.2984 38.3566 46.3832 38.1408L46.493 37.811C46.5304 37.7018 46.5653 37.5902 46.5953 37.4786C46.8473 36.5857 47.002 35.6606 47.0469 34.7255C47.0918 33.7929 47.0469 32.8529 46.9196 31.9228C46.7874 30.9927 46.5703 30.0775 46.2934 29.1747C45.7345 27.369 44.9186 25.6403 43.978 23.9785C43.5089 23.1451 43.0049 22.3291 42.4884 21.5205C41.9694 20.712 41.433 19.9158 40.8741 19.1395C40.1056 18.0754 39.2847 17.0561 38.4015 16.0912C37.5906 17.4008 36.5951 18.5839 35.4698 19.6132C35.6993 19.2833 35.9314 18.9559 36.1559 18.6261C35.9838 18.8195 35.8066 19.0105 35.627 19.199C35.849 18.951 36.0661 18.7005 36.2782 18.4425C36.4803 18.1424 36.6799 17.8423 36.8695 17.5372C37.2662 16.9122 37.6305 16.2748 37.9649 15.6225C37.6979 15.3422 37.4259 15.0644 37.1465 14.7965C36.4603 14.1293 35.7492 13.482 35.0257 12.8495C34.3046 12.222 33.5661 11.6243 32.7776 11.1282C32.0615 10.6768 31.303 10.3147 30.5071 10.0964C30.582 10.342 30.6693 10.585 30.7716 10.8207C30.829 10.9595 30.9013 11.0935 30.9662 11.2299C31.0411 11.3613 31.1084 11.4953 31.1933 11.6218C31.3529 11.8797 31.5276 12.1278 31.7222 12.3659C32.4932 13.3232 33.4812 14.1269 34.4867 14.9354L35.8441 16.0267L34.115 15.7688C33.2891 15.6448 32.4782 15.424 31.7072 15.109C30.9338 14.7916 30.2027 14.3922 29.5241 13.8962C28.8454 13.3952 28.2316 12.7925 27.7601 12.0633C27.5255 11.6987 27.3284 11.3018 27.1962 10.8752C27.0614 10.4511 26.9941 9.9972 27.009 9.54331L27.0215 9.18367L27.3683 9.08942C27.8848 8.95053 28.4163 8.88604 28.9427 8.88852C29.0824 8.891 29.2247 8.89596 29.3644 8.90588C29.3419 8.66282 29.3344 8.41727 29.3344 8.17172C29.3394 7.82944 29.3669 7.48717 29.4168 7.14737C29.5241 6.47026 29.7112 5.80058 30.0356 5.17307C30.3574 4.54805 30.824 3.96766 31.4602 3.57082C31.7746 3.37488 32.1214 3.23102 32.4857 3.14669C32.85 3.06484 33.2367 3.04252 33.6185 3.10949C33.9952 3.1715 34.382 3.33023 34.6863 3.5733C34.9957 3.81141 35.2427 4.11896 35.4124 4.46868C35.4922 4.64726 35.5571 4.83328 35.5921 5.02922C35.607 5.12595 35.617 5.22516 35.622 5.32437C35.8391 5.38886 36.0511 5.46575 36.2582 5.55752C36.3031 5.57736 36.3456 5.60216 36.388 5.62448C36.4479 5.43598 36.5202 5.24996 36.615 5.07138C36.6574 4.95729 36.7123 4.84568 36.7797 4.74151C36.9045 4.55549 37.0691 4.39179 37.2637 4.26282C37.4584 4.13632 37.6879 4.03959 37.9374 4.01975C38.4489 3.97262 38.9354 4.22561 39.2648 4.57037C39.5991 4.91761 39.8087 5.33429 39.9684 5.75098C40.5497 7.40284 40.6545 9.17623 40.3926 10.8777C40.3277 11.3043 40.2329 11.7235 40.1281 12.1402C40.0133 12.5544 39.891 12.9661 39.7364 13.3654C39.5068 13.9904 39.2323 14.5931 38.923 15.1785C39.916 16.245 40.8342 17.3834 41.6775 18.5591C42.2489 19.3553 42.7928 20.1663 43.3168 20.9873C43.8407 21.8083 44.3497 22.6416 44.8288 23.4973C45.7894 25.2037 46.6327 26.9945 47.2141 28.8869C47.5035 29.8319 47.723 30.8042 47.8553 31.7913C47.9875 32.7834 48.0324 33.783 47.975 34.7776ZM36.8845 9.79382C36.9693 10.0939 37.0666 10.3916 37.1839 10.6793C37.2363 10.8107 37.3037 10.9273 37.381 11.0216C37.4209 11.0662 37.4609 11.1059 37.4983 11.1282C37.5357 11.1505 37.5632 11.158 37.5831 11.158C37.628 11.1555 37.6679 11.1431 37.7328 11.0488C37.7628 11.0042 37.7902 10.9471 37.8176 10.8827L37.8925 10.6743C37.9848 10.3916 38.0522 10.0989 38.0672 9.80126C38.1545 8.61073 37.653 7.37059 36.7323 6.62899C36.7123 6.61163 36.6899 6.59675 36.6674 6.58187C36.5277 7.65335 36.6001 8.75459 36.8845 9.79382ZM30.4148 12.1005C30.3225 11.9566 30.2426 11.8028 30.1603 11.6515C30.0855 11.4953 30.0056 11.344 29.9407 11.1828C29.7636 10.771 29.6264 10.3444 29.5266 9.91039C29.3319 9.88807 29.1348 9.87567 28.9402 9.87071C28.6258 9.86823 28.3115 9.89551 28.0046 9.95256C28.057 10.5057 28.2666 11.0513 28.5834 11.5449C28.9727 12.1501 29.5041 12.6809 30.1029 13.1248C30.7067 13.5663 31.3779 13.9384 32.0765 14.2261C32.1489 14.2558 32.2212 14.2831 32.2936 14.3104C31.837 13.8887 31.3979 13.4398 31.0011 12.9413C30.7916 12.6734 30.5944 12.3931 30.4148 12.1005ZM38.4339 14.6676C38.9928 13.42 39.407 12.1203 39.6241 10.776C39.6914 10.3767 39.7413 9.9724 39.7663 9.56563C39.7962 9.16135 39.7987 8.7521 39.7838 8.34782C39.7688 7.94106 39.7264 7.53677 39.6665 7.13249C39.6316 6.93159 39.5991 6.73068 39.5542 6.53226C39.5467 6.49506 39.5367 6.46033 39.5293 6.42313C39.4868 6.2892 39.4419 6.15774 39.3945 6.02629C39.2922 5.72865 39.1575 5.45335 38.9878 5.20532C38.903 5.0813 38.8057 4.96721 38.7009 4.86552C38.5961 4.76631 38.4813 4.6795 38.3591 4.62493C38.2368 4.56789 38.1071 4.53813 37.9773 4.53813C37.8451 4.53565 37.7178 4.57037 37.6031 4.62742C37.371 4.74399 37.1789 4.96721 37.0442 5.22764C36.9394 5.42854 36.8595 5.64433 36.8022 5.87003C36.9244 5.9494 37.0417 6.03621 37.154 6.12798C37.4259 6.35368 37.6605 6.61907 37.8651 6.90182C38.0696 7.18705 38.2293 7.49709 38.3616 7.81704C38.6161 8.46191 38.7259 9.16135 38.666 9.85087C38.641 10.1956 38.5587 10.5379 38.4464 10.8653C38.4165 10.9471 38.3865 11.029 38.3541 11.1108C38.3167 11.1952 38.2742 11.282 38.2119 11.3713C38.152 11.4581 38.0696 11.5523 37.9549 11.6218C37.8376 11.6937 37.7004 11.7309 37.5582 11.7235C37.4159 11.716 37.2887 11.6615 37.1889 11.597C37.0891 11.53 37.0167 11.4556 36.9519 11.3762C36.8246 11.22 36.7373 11.0513 36.6724 10.8802C36.5502 10.5701 36.4504 10.2502 36.3655 9.92775C36.0611 8.74218 36.0137 7.49461 36.2333 6.29416C36.0087 6.17262 35.7717 6.07341 35.5272 5.999C35.4399 6.25943 35.3026 6.49506 35.1529 6.69596C34.9309 6.99111 34.6888 7.22674 34.4393 7.4574C34.1873 7.68559 33.9204 7.89889 33.6409 8.09235C33.5012 8.18908 33.359 8.28333 33.2118 8.37014C33.0646 8.45695 32.9248 8.54128 32.7527 8.62313C32.5855 8.7025 32.3884 8.77939 32.1539 8.79923C31.9243 8.82155 31.6499 8.75706 31.4527 8.61817C31.2482 8.48424 31.1084 8.29821 31.0136 8.10227C30.9213 7.90385 30.8714 7.69303 30.8714 7.47229C30.8739 7.2441 30.9313 7.03824 31.0161 6.8547C31.1009 6.66868 31.2132 6.50498 31.338 6.3636C31.59 6.07589 31.8869 5.86755 32.1938 5.69145C32.5057 5.52031 32.835 5.3839 33.1743 5.29213C33.5162 5.20532 33.8655 5.15323 34.2173 5.14083C34.4094 5.13835 34.6015 5.14579 34.7936 5.16315C34.7712 5.0441 34.7288 4.92753 34.6764 4.81592C34.5616 4.58773 34.3919 4.37939 34.1848 4.22561C34.1349 4.18345 34.0775 4.15368 34.0252 4.11896C33.9678 4.09168 33.9154 4.05695 33.8555 4.03711C33.7432 3.98751 33.611 3.95526 33.4837 3.93294C32.9648 3.84861 32.3909 3.99247 31.9243 4.2901C31.4577 4.58277 31.081 5.0441 30.819 5.56496C30.552 6.08829 30.3899 6.67612 30.3 7.27386C30.2576 7.57398 30.2377 7.87409 30.2352 8.17668C30.2377 8.46191 30.2526 8.74962 30.29 9.03238C30.3624 9.04726 30.4348 9.05966 30.5071 9.07702C31.5201 9.31265 32.4657 9.75413 33.319 10.2899C34.1749 10.8256 34.9533 11.4556 35.6944 12.0955C36.4329 12.7379 37.159 13.3902 37.8601 14.0797C38.0522 14.2757 38.2418 14.4716 38.4339 14.6676ZM33.364 5.97916C33.0795 6.06101 32.8076 6.17758 32.5531 6.31896C32.3011 6.46778 32.064 6.6414 31.8919 6.84478C31.8046 6.94647 31.7347 7.05312 31.6873 7.16225C31.6374 7.27138 31.6124 7.38548 31.6124 7.47973C31.6124 7.58142 31.6399 7.69055 31.6848 7.7848C31.7322 7.87657 31.7971 7.95594 31.8669 7.9981C31.9368 8.04275 31.9992 8.05763 32.0915 8.05019C32.1813 8.04275 32.2936 8.00554 32.4183 7.94354C32.5381 7.88401 32.6778 7.80216 32.8076 7.72279C32.9373 7.64094 33.0671 7.55661 33.1918 7.46733C33.4413 7.28875 33.6808 7.09528 33.9054 6.88694C34.1299 6.67612 34.347 6.45537 34.5092 6.22967C34.599 6.10566 34.6739 5.97916 34.7263 5.85019C34.2672 5.81546 33.8031 5.85763 33.364 5.97916ZM31.7272 28.3115L29.8908 23.2493L27.7077 28.7877C27.7077 28.7877 27.6877 28.8646 27.6578 28.9663C27.9272 28.9961 28.1992 29.0085 28.4711 29.0035C28.4936 29.0035 28.5161 29.001 28.536 29.001C29.312 28.9365 30.083 28.8001 30.8315 28.5943C31.1334 28.5124 31.4303 28.4157 31.7272 28.3115ZM42.5134 32.2353C42.4734 32.1857 42.436 32.1386 42.3936 32.0914C42.2514 31.9302 42.0917 31.7839 41.917 31.6599C41.7424 31.5359 41.5577 31.4243 41.3631 31.3474C41.1685 31.268 40.9639 31.211 40.7593 31.1862C40.5547 31.1638 40.3451 31.1713 40.153 31.206C39.7638 31.2903 39.387 31.5111 39.1101 31.8186C38.9679 31.9699 38.8556 32.1435 38.7733 32.3296C38.6909 32.5131 38.636 32.709 38.6335 32.9C38.6285 33.0935 38.656 33.2845 38.7333 33.463C38.8107 33.6391 38.923 33.8004 39.0652 33.9393C39.649 34.4924 40.682 34.6312 41.3781 34.2022C41.7374 33.9864 42.0318 33.6565 42.2239 33.2671C42.3237 33.0736 42.3961 32.8653 42.4485 32.652C42.4784 32.5156 42.5009 32.3767 42.5134 32.2353ZM25.5395 24.1248C25.502 24.1025 25.4621 24.0876 25.4197 24.0752C25.4621 24.0876 25.502 24.1025 25.5395 24.1248ZM22.7949 43.6123H21.5449V41.0155H23.0269C23.2565 41.0254 23.4386 41.2114 23.4386 41.4421V41.5686H23.5234V40.197H23.4386V40.3235C23.4386 40.5566 23.2515 40.7451 23.0169 40.7501H21.5449V38.0714H23.3213C23.5933 38.0887 23.8104 38.312 23.8104 38.5873V38.7411H23.8977V38.0466V37.9027V37.6497C23.7355 37.7167 23.234 37.8035 22.8598 37.8085H20.3123L20.3148 37.8953H20.4246C20.714 37.8953 20.981 38.1135 20.981 38.3913V43.2427C20.976 43.5453 20.7265 43.7884 20.4221 43.7884H20.3123L20.3098 43.8752H23.9226L24.4316 42.4763H24.3443C24.0749 43.1361 23.7206 43.6123 22.7949 43.6123ZM33.369 37.8035C32.9922 37.801 32.4832 37.7142 32.3185 37.6448V38.7336L32.4059 38.7311V38.5774C32.4059 38.2996 32.6254 38.0739 32.9024 38.0615H34.5566V43.2576C34.5441 43.5528 34.2996 43.7884 33.9977 43.7884H33.8879L33.8854 43.8752H35.7942L35.7917 43.7884H35.6819C35.38 43.7884 35.133 43.5503 35.123 43.2502V38.0615H36.7747C37.0517 38.0739 37.2712 38.2996 37.2712 38.5774V38.7311L37.3586 38.7336V37.6448C37.1964 37.7142 36.6849 37.801 36.3081 37.8035H33.369ZM29.9607 37.8978H30.1204C30.4148 37.8978 30.6518 38.1309 30.6593 38.4236V42.7194L25.9137 37.682H25.8289C25.8289 37.682 25.9087 38.1731 25.9087 38.7634V43.2651C25.9037 43.5553 25.6642 43.7909 25.3698 43.7909H25.2101L25.2076 43.8777H27.0041V43.7909H26.8419C26.55 43.7909 26.3129 43.5602 26.3029 43.2725V38.9593L31.056 43.9992H31.1359C31.1359 43.9992 31.056 43.4511 31.056 42.893V38.4161C31.066 38.1284 31.303 37.8978 31.595 37.8978H31.7546L31.7571 37.811H29.9607V37.8978ZM19.6736 29.4921C19.691 29.5616 19.7309 29.6186 19.7958 29.6633C19.8283 29.6856 19.8682 29.7005 19.9156 29.7079C19.943 29.7129 19.973 29.7154 20.0129 29.7154C20.0378 29.7154 20.0628 29.7129 20.0952 29.7104L20.1052 29.7079L20.1077 29.7005C20.1526 29.5814 20.1551 29.4971 20.1501 29.4276C20.1476 29.4004 20.1426 29.3731 20.1401 29.3458L20.1351 29.316C20.1302 29.2763 20.1227 29.2416 20.1102 29.2094C20.0852 29.1449 20.0378 29.0928 19.9655 29.0531C19.8782 29.011 19.7808 29.0035 19.6461 29.0234L19.6336 29.0258L19.6311 29.0382C19.6237 29.0804 19.6212 29.1226 19.6237 29.1647C19.6237 29.2019 19.6262 29.2391 19.6336 29.2788L19.6736 29.4921ZM17.6401 27.7659L17.6351 27.751C17.6226 27.7088 17.6052 27.6691 17.5877 27.6344C17.5478 27.565 17.4804 27.5104 17.3956 27.4806C17.2908 27.4484 17.1835 27.4583 17.0562 27.5129L17.0438 27.5178L17.0463 27.5302C17.0537 27.5749 17.0637 27.617 17.0787 27.6567C17.0887 27.6939 17.1012 27.7311 17.1186 27.7683C17.1461 27.8328 17.1735 27.9023 17.196 27.9692C17.2209 28.0337 17.2658 28.0858 17.3307 28.1255C17.3631 28.1453 17.4031 28.1577 17.4505 28.1677C17.4854 28.1726 17.5228 28.1776 17.5727 28.1776C17.5902 28.1776 17.6101 28.1776 17.6301 28.1751H17.6401L17.6426 28.1652C17.68 28.0685 17.6875 27.9767 17.6675 27.8725C17.6625 27.8353 17.6501 27.8006 17.6401 27.7659ZM19.2843 30.3602L19.2768 30.3404C19.2644 30.3106 19.2519 30.2858 19.2369 30.2635C19.2045 30.2213 19.1546 30.199 19.0872 30.199H19.0847C19.0049 30.204 18.9225 30.2412 18.8178 30.3181L18.8103 30.323V30.3305C18.8128 30.3677 18.8202 30.4024 18.8302 30.4371C18.8377 30.4669 18.8477 30.4966 18.8602 30.5264L18.935 30.6802C18.9625 30.7298 19.0099 30.7595 19.0723 30.767C19.0772 30.767 19.0822 30.767 19.0872 30.767C19.1147 30.767 19.1446 30.762 19.1795 30.7496C19.217 30.7347 19.2619 30.7174 19.3243 30.6727L19.3292 30.6678V30.6603C19.3442 30.5438 19.3267 30.4743 19.3093 30.4198C19.3018 30.3999 19.2943 30.3801 19.2843 30.3602ZM18.8701 29.4202L18.8726 29.4103C18.9001 29.3136 18.9026 29.2267 18.8751 29.1275C18.8652 29.0928 18.8527 29.0606 18.8402 29.0283L18.8352 29.0134C18.8178 28.9738 18.8003 28.939 18.7803 28.9093C18.7354 28.8473 18.6656 28.8051 18.5832 28.7902C18.4809 28.7753 18.3786 28.8026 18.2663 28.8745L18.2564 28.8795L18.2589 28.8894C18.2688 28.9316 18.2838 28.9713 18.2988 29.006C18.3113 29.0407 18.3262 29.073 18.3437 29.1077C18.3761 29.1647 18.4061 29.2267 18.431 29.2887C18.461 29.3483 18.5059 29.388 18.5707 29.4177C18.6032 29.4301 18.6431 29.4376 18.688 29.44C18.7354 29.44 18.7878 29.4376 18.8627 29.4202H18.8701ZM18.7778 27.6443C18.8053 27.7187 18.8352 27.7931 18.8652 27.87C18.9001 27.942 18.9575 27.9965 19.0373 28.0337C19.0772 28.0511 19.1246 28.0585 19.1745 28.0585C19.2344 28.0561 19.2868 28.0486 19.3567 28.0213L19.3667 28.0164V28.0064C19.3742 27.88 19.3517 27.7931 19.3292 27.7262C19.3218 27.7014 19.3118 27.6791 19.3043 27.6567C19.2993 27.6443 19.2943 27.6319 19.2893 27.6195C19.2744 27.5798 19.2594 27.5476 19.2444 27.5178C19.2095 27.4583 19.1546 27.4137 19.0797 27.3814C19.0199 27.3591 18.9275 27.3393 18.7529 27.3715L18.7404 27.374V27.3864C18.7379 27.431 18.7404 27.4757 18.7479 27.5203C18.7529 27.5625 18.7629 27.6022 18.7778 27.6443ZM14.913 27.4856C14.918 27.4608 14.923 27.4385 14.9304 27.4137C14.8955 27.436 14.8581 27.4533 14.8207 27.4682C14.7134 27.5054 14.6161 27.5178 14.4988 27.4608C14.4364 27.4285 14.389 27.369 14.3716 27.3269C14.3541 27.2921 14.3491 27.25 14.3441 27.2028C14.3441 27.1929 14.3416 27.183 14.3416 27.1731C14.3416 27.0267 14.4015 26.8506 14.4489 26.7291C14.4564 26.7043 14.4689 26.6795 14.4813 26.6547C14.4888 26.6423 14.4938 26.6274 14.4988 26.615L14.5038 26.6051C14.5188 26.5704 14.5387 26.5307 14.5512 26.5084C14.5737 26.4687 14.5986 26.424 14.6335 26.372C14.7009 26.2703 14.7633 26.1909 14.8282 26.119C14.8506 26.0942 14.8706 26.0718 14.893 26.0495L14.8456 26.047C14.6884 26.0421 14.5587 25.9925 14.4813 25.9106C14.4364 25.866 14.4115 25.8015 14.4115 25.7345C14.4115 25.6775 14.4314 25.6179 14.4739 25.5584C14.5088 25.5063 14.5587 25.4642 14.6061 25.4245L14.6111 25.4195L14.7109 25.3476C14.7234 25.3402 14.7333 25.3327 14.7458 25.3253C14.8057 25.2409 14.8681 25.1765 14.923 25.1219C14.9878 25.0624 15.0577 25.0053 15.1276 24.9582L15.1725 24.9284V24.926L15.1999 24.9111L15.2049 24.921C15.2124 24.921 15.2174 24.9185 15.2224 24.9111C15.2224 24.9086 15.2224 24.9086 15.2249 24.9061C15.2249 24.9061 15.2249 24.9036 15.2224 24.9011L15.1949 24.8416C15.1775 24.8019 15.16 24.7623 15.1425 24.7201C15.1176 24.6556 15.0901 24.5837 15.0677 24.5068C15.0402 24.4696 15.0153 24.4324 14.9953 24.3952C14.9679 24.3431 14.9504 24.2935 14.9429 24.2389C14.9354 24.1992 14.9429 24.1347 14.9828 24.0777C15.0178 24.0256 15.0727 23.9909 15.1151 23.9661C15.2723 23.8818 15.4719 23.8768 15.6615 23.9512C15.7738 23.9983 15.8212 24.0281 15.8836 24.0703C15.9409 24.1075 15.9958 24.1521 16.0482 24.2017L16.2653 24.4101C16.2678 24.4125 16.2703 24.4125 16.2728 24.415C16.2728 24.4125 16.2728 24.4125 16.2728 24.4101L16.2678 24.4051L16.2828 24.2687L16.3027 24.0752L16.4524 22.7433L16.8516 23.16C17.0014 23.3138 17.1061 23.5221 17.1635 23.7801C17.2034 23.9512 17.2184 24.1149 17.2334 24.2712C17.2359 24.3034 17.2384 24.3332 17.2434 24.3629L17.2509 24.4225C17.2534 24.4373 17.2558 24.4547 17.2583 24.4696C17.2633 24.4944 17.2708 24.5192 17.2808 24.539C17.2933 24.5316 17.3082 24.5241 17.3282 24.5117C17.3432 24.5018 17.3606 24.4919 17.3781 24.482C17.4704 24.4274 17.5702 24.3828 17.675 24.3456C17.8372 24.2885 18.0069 24.2538 18.1366 24.2488C18.2015 24.2464 18.2589 24.2538 18.3237 24.2712C18.3836 24.2885 18.4335 24.3108 18.4759 24.3431C18.5258 24.3778 18.5633 24.42 18.5907 24.4721C18.6182 24.5217 18.6331 24.5886 18.6281 24.6432C18.6256 24.6878 18.6132 24.7275 18.5907 24.7771C18.5633 24.8317 18.5258 24.8838 18.4784 24.9309C18.441 24.9656 18.4011 24.9979 18.3612 25.0326C18.3387 25.05 18.3187 25.0673 18.2988 25.0847L18.1416 25.2137L18.0218 25.3104C18.3038 25.3873 18.5807 25.5113 18.8427 25.6824C19.0947 25.8486 19.3392 26.0619 19.5663 26.3199C19.9755 26.7886 20.2799 27.3789 20.452 28.0288C20.6067 28.6042 20.6691 29.2267 20.6441 29.9311C20.6367 30.1172 20.6267 30.266 20.6142 30.4049C20.5992 30.5785 20.5818 30.7347 20.5369 30.9034C20.4795 31.1241 20.3797 31.3002 20.2399 31.4267C20.1501 31.5061 20.0578 31.5656 19.9605 31.5979C19.8682 31.6326 19.7659 31.6549 19.6561 31.6599C19.6386 31.6599 19.6212 31.6599 19.6012 31.6599C19.4465 31.6599 19.2893 31.6351 19.1122 31.578C18.945 31.526 18.7928 31.4565 18.6506 31.3895C18.3786 31.2581 18.0992 31.1043 17.8197 30.9307C17.3033 30.6107 16.8192 30.2561 16.2878 29.8567C16.0457 29.6732 15.7912 29.4748 15.5642 29.2441C15.3072 28.9837 15.1276 28.7232 15.0153 28.4479C14.8855 28.1379 14.8506 27.8055 14.913 27.4856ZM17.8172 25.4691L17.7673 25.5039L17.8197 25.5386L18.1566 25.737L18.1765 25.732L18.174 25.7469L18.7254 26.0694L18.2489 26.1636C18.2015 26.1735 18.1566 26.181 18.1092 26.1884L18.1067 26.2132L18.0717 26.1959C17.9894 26.2083 17.9071 26.2157 17.8247 26.2231L17.6825 26.2306H17.66C17.6326 26.2306 17.6052 26.2281 17.5752 26.2256L17.5503 26.2231C17.5528 26.2281 17.5553 26.2331 17.5577 26.2405C17.5627 26.2529 17.5702 26.2653 17.5752 26.2777L17.675 26.5381C17.69 26.5803 17.7099 26.6373 17.7274 26.6944C17.7598 26.7986 17.7873 26.8978 17.8122 26.9945L17.8447 27.1111C17.8472 27.116 17.8497 27.1235 17.8447 27.1309L17.8422 27.1359L17.8297 27.1408L17.5029 27.0441L17.3482 26.992L16.8991 26.8358C16.8841 26.8308 16.8641 26.8258 16.8467 26.8308C16.8467 26.8308 16.8442 26.8308 16.8442 26.8333L16.697 27.2301L16.6021 27.5005L16.4874 27.8403C16.44 27.9742 16.3926 28.1305 16.3302 28.3438L16.153 28.9663L16.1331 28.9465C16.1206 28.9341 16.1081 28.9192 16.0931 28.9043L16.0682 28.882C16.0557 28.8745 16.0408 28.8497 16.0033 28.7803C15.9958 28.7654 15.9884 28.7505 15.9809 28.7381L15.8112 28.4182C15.8012 28.4008 15.7937 28.381 15.7863 28.3611C15.7813 28.3512 15.7788 28.3388 15.7738 28.3289C15.7638 28.3041 15.7513 28.2718 15.7388 28.2322L15.7089 28.128L15.684 28.0064C15.6765 27.9742 15.6715 27.9345 15.6665 27.8973L15.664 27.8775C15.6615 27.8626 15.659 27.8452 15.659 27.8303C15.654 27.8031 15.6515 27.7733 15.649 27.7411L15.6341 27.4881C15.6316 27.431 15.6291 27.374 15.6291 27.3169C15.6241 27.1805 15.6216 27.0515 15.6091 26.925C15.6066 26.8928 15.6041 26.873 15.6016 26.8556C15.5941 26.8606 15.5842 26.8655 15.5767 26.873C15.5492 26.8928 15.5268 26.9126 15.4844 26.9474L15.1176 27.2673C15.0976 27.3442 15.0851 27.4261 15.0777 27.5104C15.0602 27.7931 15.1226 28.0883 15.2573 28.3388C15.3796 28.567 15.5592 28.7828 15.8037 28.9961C16.0333 29.197 16.2952 29.378 16.5223 29.5293L16.6071 29.5864C17.0812 29.9039 17.5702 30.2337 18.0618 30.5165C18.3387 30.6752 18.5982 30.8116 18.8602 30.9307C18.9924 30.9902 19.1246 31.0473 19.2544 31.0869C19.3891 31.1266 19.5164 31.1465 19.6187 31.1415C19.8382 31.1291 19.9655 31.015 20.0353 30.7695C20.0678 30.6529 20.0877 30.519 20.1052 30.3553C20.1252 30.194 20.1351 30.0378 20.1451 29.9063C20.1875 29.2491 20.1501 28.6662 20.0353 28.123C19.9081 27.5129 19.6736 26.9623 19.3367 26.4885C18.9774 25.9776 18.5109 25.5783 17.9844 25.3302L17.8397 25.4493C17.8222 25.4642 17.8197 25.4667 17.8172 25.4691ZM14.9878 25.6948C15.0327 25.6899 15.0752 25.6824 15.1176 25.675C15.2049 25.6601 15.2897 25.6403 15.3746 25.6155L16.5497 25.2781L15.5343 26.0495C15.3995 26.1487 15.2773 26.2653 15.17 26.4017C15.1251 26.4588 15.0802 26.5232 15.0278 26.6101C15.0153 26.6324 14.9978 26.6621 14.9828 26.6919L15.1425 26.553C15.175 26.5257 15.2149 26.491 15.2598 26.4588C15.2847 26.4414 15.3122 26.424 15.3421 26.4067L15.3521 26.4017C15.3646 26.3943 15.3846 26.3843 15.3995 26.3769C15.407 26.3744 15.4145 26.3695 15.422 26.367C15.4369 26.362 15.4494 26.3546 15.4644 26.3496C15.5567 26.3174 15.649 26.3075 15.7339 26.3223C15.8162 26.3372 15.896 26.3819 15.9609 26.4488C16.0183 26.5108 16.0557 26.5927 16.0757 26.6869C16.0882 26.7589 16.0907 26.7961 16.0931 26.8308C16.0931 26.8457 16.0956 26.8606 16.0956 26.8779C16.1031 27.0416 16.1006 27.1979 16.0956 27.3492C16.0956 27.3913 16.0931 27.431 16.0931 27.4707L16.0882 27.5352L16.0857 27.5848C16.0832 27.6195 16.0857 27.6592 16.0882 27.7039C16.0931 27.751 16.1006 27.8006 16.1156 27.8552C16.1181 27.8651 16.1181 27.87 16.1206 27.875C16.1231 27.8676 16.1281 27.8601 16.1331 27.8527L16.2204 27.689L16.2853 27.5749L16.3851 27.3913L16.5522 26.8457C16.5822 26.7489 16.6221 26.6274 16.7319 26.5778C16.7818 26.5555 16.8367 26.5505 16.904 26.5629C16.934 26.5679 16.9639 26.5753 16.9914 26.5828L17.1211 26.615C17.1685 26.6274 17.2284 26.6423 17.2384 26.6423L17.3382 26.6572C17.3182 26.6125 17.2983 26.5753 17.2783 26.5456L17.2159 26.4092C17.1885 26.3521 17.156 26.2926 17.1161 26.2182L16.8791 25.7965L17.1311 25.8089C17.161 25.8114 17.191 25.8114 17.2209 25.8139C17.2708 25.8164 17.3207 25.8188 17.3706 25.8213L16.9415 25.5857L17.7948 24.854C17.7549 24.8714 17.7124 24.8887 17.675 24.9111C17.6476 24.926 17.6251 24.9384 17.5902 24.9607L17.5827 24.9656C17.5627 24.978 17.5428 24.9904 17.5178 25.0028C17.4929 25.0152 17.453 25.0351 17.4105 25.0475C17.2608 25.0996 17.0937 25.0698 16.9739 24.9731C16.9165 24.9284 16.8691 24.8689 16.8292 24.7945C16.7968 24.7325 16.7818 24.6854 16.7668 24.6308C16.7543 24.5837 16.7444 24.5341 16.7394 24.482L16.7269 24.348L16.697 24.5539C16.692 24.5812 16.6895 24.611 16.6845 24.6407C16.6745 24.7226 16.6645 24.797 16.6396 24.8491L16.5897 24.9979C16.5872 25.0053 16.5847 25.0152 16.5747 25.0202C16.5672 25.0227 16.5597 25.0227 16.5497 25.0177L16.4574 24.9904C16.3876 24.9681 16.3202 24.9483 16.2528 24.9111C16.1805 24.8739 16.1056 24.8193 16.0333 24.7499C16.0158 24.735 15.9983 24.7176 15.9834 24.7027L15.8886 24.601L15.7738 24.4745C15.7364 24.4349 15.7014 24.4026 15.6615 24.3704C15.6241 24.3406 15.5742 24.3084 15.5567 24.2984C15.5143 24.2761 15.4494 24.2513 15.3796 24.2662C15.3521 24.2736 15.3272 24.2811 15.3122 24.2984C15.3072 24.3059 15.3047 24.3133 15.3072 24.3208C15.3746 24.3679 15.4369 24.4225 15.4943 24.482C15.5243 24.5142 15.5542 24.549 15.5792 24.5812L15.6191 24.6333L15.6889 24.73C15.6939 24.7374 15.7014 24.7474 15.7064 24.7548C15.7264 24.7821 15.7463 24.8094 15.7588 24.8391C15.7763 24.8739 15.7863 24.9111 15.7912 24.9483C15.8012 25.0177 15.7763 25.1045 15.7339 25.1566C15.6964 25.2062 15.6291 25.2533 15.5417 25.293L15.4369 25.3426L15.1325 25.4642C15.0427 25.4989 14.9629 25.5287 14.883 25.551C14.8631 25.5584 14.8431 25.5634 14.8232 25.5683C14.8132 25.5733 14.8032 25.5807 14.7932 25.5857C14.7832 25.5981 14.7758 25.6105 14.7683 25.6229C14.7608 25.6403 14.7558 25.6551 14.7583 25.6676C14.7608 25.6824 14.7733 25.6948 14.7857 25.7023C14.8107 25.7147 14.8431 25.7147 14.8805 25.7072C14.8855 25.7072 14.8855 25.7048 14.888 25.7048H14.893L14.9878 25.6948ZM17.0163 29.13L17.0014 29.0978C16.9789 29.0506 16.9589 29.011 16.9365 28.9762C16.8866 28.9043 16.8142 28.8473 16.7244 28.8076C16.6121 28.7654 16.5023 28.7604 16.3601 28.7952L16.3451 28.7977L16.3476 28.8125C16.3551 28.8621 16.3701 28.9117 16.3876 28.9589C16.4025 29.0035 16.42 29.0457 16.4425 29.0903L16.5672 29.3334C16.6096 29.4103 16.677 29.4723 16.7618 29.5194C16.8042 29.5417 16.8541 29.5566 16.909 29.5641C16.9315 29.5665 16.9564 29.569 16.9864 29.569C17.0213 29.569 17.0612 29.5665 17.1086 29.5566L17.1211 29.5541V29.5417C17.1261 29.4028 17.0962 29.3036 17.0662 29.2243C17.0463 29.192 17.0313 29.1623 17.0163 29.13ZM26.3154 4.40419C26.2456 4.43891 26.1832 4.491 26.1358 4.55053C26.1033 4.56789 26.0759 4.59021 26.0534 4.61749C25.8838 4.8308 25.8838 5.12099 26.0534 5.34173C26.1732 5.49799 26.3479 5.58232 26.5275 5.58232C26.6048 5.58232 26.6847 5.56744 26.7595 5.53519C26.8718 5.48559 26.9317 5.35413 26.9292 5.25244L26.9217 4.94985C26.9217 4.92257 26.9217 4.89528 26.9242 4.86552C26.9267 4.78367 26.9292 4.68942 26.9067 4.60509C26.8793 4.50836 26.8119 4.43395 26.7171 4.39179C26.5974 4.3397 26.4352 4.34466 26.3154 4.40419ZM28.1044 3.9627C28.1069 3.9627 28.1119 3.9627 28.1144 3.9627C28.2291 3.96022 28.3389 3.89574 28.3888 3.80148C28.4836 3.6105 28.4462 3.39472 28.2915 3.24838C28.1643 3.12933 27.9896 3.08469 27.8349 3.12933C27.7501 3.10453 27.6603 3.11445 27.5854 3.15661C27.4407 3.24094 27.3908 3.422 27.4681 3.57578C27.5879 3.81141 27.8374 3.9627 28.1044 3.9627ZM33.0072 1.10295C33.0995 1.10295 33.1943 1.08063 33.2816 1.02854C33.4438 0.931811 33.5187 0.691225 33.5187 0.55233C33.5187 0.346468 33.3889 0.175329 33.2018 0.130684C33.1145 0.110842 33.0246 0.123243 32.9448 0.157967C32.9448 0.155487 32.9423 0.155487 32.9423 0.153006C32.8799 0.0537956 32.7627 -0.00821113 32.6504 -0.000770317C32.5456 0.00419022 32.4558 0.0637167 32.4059 0.160447C32.2786 0.403514 32.3285 0.693706 32.5331 0.899568C32.6504 1.01862 32.8275 1.10295 33.0072 1.10295ZM28.8155 13.7895C28.8155 13.611 28.6832 13.477 28.5086 13.477C28.3339 13.477 28.2017 13.611 28.2017 13.7895C28.2017 13.9681 28.3339 14.102 28.5086 14.102C28.6832 14.102 28.8155 13.9681 28.8155 13.7895ZM26.1183 15.8506C26.293 15.8506 26.4252 15.7167 26.4252 15.5381C26.4252 15.3595 26.293 15.2256 26.1183 15.2256C25.9437 15.2256 25.8114 15.3595 25.8114 15.5381C25.8114 15.7167 25.9437 15.8506 26.1183 15.8506ZM24.2919 13.6234C24.4117 13.6978 24.5439 13.735 24.6737 13.735C24.7485 13.735 24.8234 13.7226 24.8982 13.6978C25.013 13.6606 25.1003 13.5787 25.1502 13.4671C25.2051 13.3381 25.2026 13.1794 25.1402 13.043C25.033 12.8073 24.7984 12.6858 24.5439 12.7329C24.4965 12.7404 24.4541 12.7577 24.4192 12.7825C24.3693 12.7453 24.3069 12.723 24.237 12.723C24.1497 12.723 24.0574 12.7652 23.995 12.8371C23.9401 12.8991 23.9152 12.976 23.9251 13.0529C23.9501 13.286 24.0898 13.4993 24.2919 13.6234ZM24.4865 10.7289H24.6113C24.6961 10.7289 24.7785 10.6917 24.8408 10.6297C24.8982 10.5677 24.9307 10.4908 24.9257 10.4114C24.9182 10.2403 24.781 10.1039 24.6113 10.1039H24.4865C24.4017 10.1039 24.3194 10.1411 24.257 10.2031C24.1996 10.2651 24.1672 10.342 24.1722 10.4213C24.1796 10.5949 24.3169 10.7289 24.4865 10.7289ZM26.3728 3.64027C26.4327 3.64027 26.4901 3.62539 26.535 3.59066C26.7096 3.46913 26.8119 3.27815 26.8144 3.06732C26.8169 2.85402 26.7196 2.65808 26.545 2.52911C26.4726 2.47454 26.3728 2.46214 26.2805 2.49438C26.1433 2.48694 26.0185 2.57127 25.9661 2.71017C25.8588 2.99044 25.9287 3.31783 26.1458 3.54354C26.2031 3.60802 26.2905 3.64027 26.3728 3.64027ZM21.5923 14.3402C21.707 14.4195 21.8393 14.4617 21.969 14.4617C22.0439 14.4617 22.1187 14.4468 22.1886 14.4195C22.3233 14.365 22.4032 14.2583 22.4057 14.1244L22.4106 13.792C22.4131 13.6804 22.3607 13.5837 22.2684 13.5291C22.1686 13.4696 22.0389 13.4671 21.9366 13.5241C21.9041 13.5415 21.8767 13.5638 21.8542 13.5911C21.8018 13.5266 21.7195 13.4869 21.6197 13.4845C21.46 13.4795 21.2978 13.5862 21.2929 13.7871C21.2904 13.9979 21.4026 14.2112 21.5923 14.3402ZM42.1341 10.7686C42.1715 10.838 42.2189 10.9149 42.3063 10.9967L42.3761 11.0637L42.4585 11.0141C42.6281 10.9099 42.7229 10.7884 42.7878 10.6966C42.8153 10.657 42.8377 10.6197 42.8602 10.5801L42.8826 10.5404C42.92 10.4809 42.9475 10.4238 42.9724 10.3668C43.0099 10.27 43.0248 10.1659 43.0149 10.0542C43.0199 9.9848 43.0174 9.91287 43.0024 9.83598C42.9625 9.66733 42.8751 9.52843 42.7229 9.38953L42.6356 9.31017L42.5508 9.39201C42.4984 9.44162 42.4535 9.49619 42.4136 9.55075C42.3736 9.60036 42.3387 9.65492 42.3038 9.71693L42.1316 10.027C42.0742 10.1435 42.0493 10.2725 42.0617 10.4139C42.0593 10.461 42.0593 10.5057 42.0617 10.5503C42.0742 10.6173 42.0967 10.6917 42.1341 10.7686ZM45.8468 18.3483C46.0214 18.3483 46.1536 18.2143 46.1536 18.0358C46.1536 17.8572 46.0214 17.7232 45.8468 17.7232C45.6721 17.7232 45.5399 17.8572 45.5399 18.0358C45.5374 18.2143 45.6696 18.3483 45.8468 18.3483ZM43.0822 27.0912C43.1671 27.0912 43.2494 27.054 43.3118 26.992C43.3692 26.93 43.4016 26.8531 43.3966 26.7738C43.3891 26.6026 43.2519 26.4662 43.0822 26.4662H42.8302C42.7454 26.4662 42.6631 26.5034 42.6007 26.5654C42.5433 26.6274 42.5109 26.7043 42.5159 26.7837C42.5233 26.9548 42.6606 27.0912 42.8302 27.0912H43.0822ZM36.605 21.657C36.605 21.4784 36.4728 21.3444 36.2982 21.3444C36.1235 21.3444 35.9913 21.4784 35.9913 21.657C35.9913 21.8355 36.1235 21.9695 36.2982 21.9695C36.4728 21.9695 36.605 21.8355 36.605 21.657ZM35.3126 1.71806C35.3151 1.71806 35.3151 1.71806 35.3176 1.71806C35.5397 1.7131 35.7243 1.57172 35.7892 1.35346C35.8565 1.13023 35.7767 0.897088 35.5921 0.773074C35.5771 0.763153 35.5596 0.753232 35.5422 0.745791C35.4648 0.6441 35.3276 0.596975 35.1953 0.631699C35.0556 0.668903 34.9683 0.785475 34.9783 0.944213L35.0032 1.41298C35.0132 1.58412 35.1479 1.71806 35.3126 1.71806ZM38.9354 22.22C39.0203 22.22 39.1026 22.1828 39.165 22.1208C39.2224 22.0588 39.2548 21.9819 39.2498 21.9025C39.2423 21.7314 39.1051 21.5949 38.9354 21.5949H38.8107C38.7259 21.5949 38.6435 21.6322 38.5811 21.6942C38.5238 21.7562 38.4913 21.8331 38.4963 21.9124C38.5038 22.0836 38.641 22.22 38.8107 22.22H38.9354ZM40.6969 24.8391C40.8067 24.8391 40.909 24.7846 40.9664 24.6854C41.0088 24.611 41.0188 24.5217 40.9939 24.4349C40.9689 24.353 40.9165 24.291 40.8467 24.2538C40.8067 24.234 40.7918 24.2191 40.7843 24.2092C40.7643 24.1794 40.7593 24.1595 40.7568 24.1447C40.7444 23.971 40.6096 23.8421 40.4425 23.8421C40.3576 23.8421 40.2703 23.8818 40.2104 23.9462C40.153 24.0083 40.1231 24.0851 40.1306 24.1645C40.1505 24.4448 40.3027 24.6829 40.5423 24.8019C40.5922 24.8267 40.6446 24.8391 40.6969 24.8391ZM41.448 2.23643C41.6226 2.23643 41.7549 2.1025 41.7549 1.92392C41.7549 1.74534 41.6226 1.61141 41.448 1.61141C41.2733 1.61141 41.1411 1.74534 41.1411 1.92392C41.1411 2.1025 41.2733 2.23643 41.448 2.23643ZM42.7055 14.1641C42.7055 14.4046 42.8452 14.6006 43.0199 14.6006C43.1945 14.6006 43.3342 14.4046 43.3342 14.1641C43.3342 13.9235 43.1945 13.7275 43.0199 13.7275C42.8452 13.7275 42.7055 13.9235 42.7055 14.1641Z" fill="url(#paint0_linear)"/>
</g>
<defs>
<linearGradient id="paint0_linear" x1="23.9998" y1="43.9983" x2="23.9998" y2="-0.000770105" gradientUnits="userSpaceOnUse">
<stop offset="0.0492"/>
<stop offset="0.8005" stop-color="#BC1818"/>
<stop offset="0.899" stop-color="#951914"/>
<stop offset="1" stop-color="#511010"/>
</linearGradient>
<clipPath id="clip0">
<rect width="48" height="44" fill="white"/>
</clipPath>
</defs>
</svg>
