<svg width="50" height="50" viewBox="0 0 50 50" fill="none" xmlns="http://www.w3.org/2000/svg">
<circle cx="25" cy="25" r="24.5" fill="white" stroke="#F0F0F0"/>
<path d="M32.9593 21.7041C32.9218 20.8539 32.7843 20.2694 32.5874 19.763C32.3842 19.2254 32.0715 18.7441 31.662 18.344C31.2618 17.9377 30.7772 17.6219 30.2458 17.422C29.7363 17.225 29.1548 17.0875 28.3044 17.0501C27.4478 17.0094 27.1758 17 25.0031 17C22.8304 17 22.5584 17.0094 21.705 17.0469C20.8546 17.0844 20.2701 17.222 19.7636 17.4188C19.2258 17.6219 18.7445 17.9345 18.3443 18.344C17.9379 18.7441 17.6222 19.2286 17.422 19.7599C17.2251 20.2694 17.0876 20.8507 17.0501 21.7009C17.0094 22.5574 17 22.8293 17 25.0016C17 27.1739 17.0094 27.4458 17.0469 28.2991C17.0844 29.1493 17.222 29.7337 17.419 30.2402C17.6222 30.7778 17.9379 31.2591 18.3443 31.6592C18.7445 32.0655 19.229 32.3812 19.7605 32.5812C20.2701 32.7782 20.8515 32.9156 21.7019 32.9531C22.5553 32.9907 22.8273 33 25.0001 33C27.1728 33 27.4447 32.9907 28.2982 32.9531C29.1485 32.9156 29.7331 32.7782 30.2395 32.5812C31.315 32.1655 32.1653 31.3153 32.5811 30.2402C32.778 29.7307 32.9156 29.1493 32.9531 28.2991C32.9906 27.4458 33 27.1739 33 25.0016C33 22.8293 32.9968 22.5574 32.9593 21.7041ZM31.5182 28.2366C31.4838 29.018 31.3525 29.44 31.2431 29.7213C30.9742 30.4183 30.4209 30.9715 29.7237 31.2404C29.4423 31.3498 29.0173 31.481 28.2387 31.5153C27.3947 31.5529 27.1415 31.5622 25.0063 31.5622C22.8711 31.5622 22.6147 31.5529 21.7737 31.5153C20.9922 31.481 20.5701 31.3498 20.2888 31.2404C19.9418 31.1122 19.626 30.909 19.3697 30.6433C19.104 30.3839 18.9008 30.0713 18.7725 29.7244C18.6631 29.4431 18.5318 29.018 18.4975 28.2398C18.4599 27.3959 18.4506 27.1426 18.4506 25.0078C18.4506 22.873 18.4599 22.6167 18.4975 21.776C18.5318 20.9946 18.6631 20.5726 18.7725 20.2913C18.9008 19.9443 19.104 19.6287 19.3729 19.3723C19.6323 19.1066 19.9449 18.9035 20.2919 18.7754C20.5733 18.666 20.9985 18.5347 21.7769 18.5003C22.621 18.4628 22.8742 18.4534 25.0093 18.4534C27.1477 18.4534 27.4009 18.4628 28.2419 18.5003C29.0235 18.5347 29.4455 18.666 29.7269 18.7754C30.0738 18.9035 30.3896 19.1066 30.6459 19.3723C30.9117 19.6317 31.1149 19.9443 31.2431 20.2913C31.3525 20.5726 31.4838 20.9976 31.5182 21.776C31.5557 22.6199 31.5651 22.873 31.5651 25.0078C31.5651 27.1426 31.5557 27.3927 31.5182 28.2366Z" fill="#E66961"/>
<path d="M25.0031 20.8914C22.7336 20.8914 20.8921 22.7323 20.8921 25.0016C20.8921 27.2708 22.7336 29.1118 25.0031 29.1118C27.2728 29.1118 29.1141 27.2708 29.1141 25.0016C29.1141 22.7323 27.2728 20.8914 25.0031 20.8914ZM25.0031 27.6678C23.5307 27.6678 22.3364 26.4738 22.3364 25.0016C22.3364 23.5294 23.5307 22.3354 25.0031 22.3354C26.4756 22.3354 27.6698 23.5294 27.6698 25.0016C27.6698 26.4738 26.4756 27.6678 25.0031 27.6678Z" fill="#E66961"/>
<path d="M30.2365 20.7289C30.2365 21.2588 29.8067 21.6884 29.2766 21.6884C28.7466 21.6884 28.3169 21.2588 28.3169 20.7289C28.3169 20.1989 28.7466 19.7693 29.2766 19.7693C29.8067 19.7693 30.2365 20.1989 30.2365 20.7289Z" fill="#E66961"/>
</svg>
