<svg width="50" height="50" viewBox="0 0 50 50" fill="none" xmlns="http://www.w3.org/2000/svg">
<circle cx="25" cy="25" r="24.5" fill="white" stroke="#F0F0F0"/>
<path d="M24.6388 33C27.9661 33 26.7797 30.802 27.0366 30.17C27.0327 29.698 27.0289 29.244 27.0442 28.968C27.2551 29.03 27.7524 29.293 28.7797 30.335C30.3658 32.005 30.7711 33 32.0524 33H34.4108C35.1583 33 35.5474 32.677 35.742 32.406C35.9298 32.144 36.1138 31.684 35.9125 30.968C35.3864 29.244 32.3179 26.267 32.1272 25.953C32.1559 25.895 32.2019 25.818 32.2259 25.778H32.224C32.8296 24.943 35.1411 21.329 35.4813 19.883C35.4823 19.881 35.4832 19.878 35.4832 19.875C35.6672 19.215 35.4985 18.787 35.3241 18.545C35.0616 18.183 34.6437 18 34.0793 18H31.7208C30.9312 18 30.3322 18.415 30.0294 19.172C29.5224 20.517 28.0984 23.283 27.0308 24.262C26.9982 22.875 27.0203 21.816 27.0375 21.029C27.072 19.494 27.1832 18 25.6566 18H21.9498C20.9934 18 20.0782 19.09 21.0691 20.384C21.9354 21.518 21.3805 22.15 21.5674 25.296C20.8391 24.481 19.5434 22.28 18.6273 19.467C18.3704 18.706 17.9814 18.001 16.886 18.001H14.5276C13.5712 18.001 13 18.545 13 19.456C13 21.502 17.3402 33 24.6388 33ZM16.886 19.501C17.094 19.501 17.115 19.501 17.2693 19.958C18.2075 22.841 20.312 27.107 21.8492 27.107C23.0039 27.107 23.0039 25.872 23.0039 25.407L23.003 21.705C22.9397 20.48 22.5123 19.87 22.2315 19.5L25.5933 19.504C25.5952 19.521 25.5742 23.599 25.6029 24.587C25.6029 25.99 26.6705 26.794 28.337 25.034C30.0955 22.963 31.3116 19.867 31.3605 19.741C31.4324 19.561 31.4947 19.5 31.7208 19.5H34.0889C34.0879 19.503 34.0879 19.506 34.0869 19.509C33.8713 20.559 31.7429 23.905 31.0308 24.944C31.0193 24.96 31.0088 24.977 30.9983 24.994C30.6849 25.528 30.43 26.118 31.0414 26.948H31.0423C31.0979 27.018 31.2426 27.182 31.4535 27.41C32.109 28.116 34.3572 30.53 34.5565 31.49C34.4243 31.512 34.2805 31.496 32.0524 31.501C31.578 31.501 31.2072 30.761 29.7917 29.271C28.5191 27.979 27.693 27.451 26.9407 27.451C25.4802 27.451 25.5866 28.688 25.6 30.184C25.6048 31.806 25.5952 31.293 25.6058 31.395C25.5205 31.43 25.2761 31.5 24.6388 31.5C18.5583 31.5 14.5985 21.429 14.4461 19.504C14.4988 19.499 15.2243 19.502 16.886 19.501Z" fill="#E66961"/>
</svg>
