<svg width="32" height="32" viewBox="0 0 32 32" fill="none" xmlns="http://www.w3.org/2000/svg">
<circle cx="16" cy="16" r="16" fill="#F55F4B"/>
<path d="M16.3218 6.646C12.5484 6.646 9.47852 9.71592 9.47852 13.4893C9.47852 18.232 16.3285 26.3335 16.3285 26.3335C16.3285 26.3335 23.1651 17.9988 23.1651 13.4893C23.1651 9.71592 20.0953 6.646 16.3218 6.646ZM18.3866 15.493C17.8172 16.0622 17.0696 16.3469 16.3218 16.3469C15.5741 16.3469 14.8262 16.0622 14.2572 15.493C13.1186 14.3546 13.1186 12.5021 14.2572 11.3636C14.8085 10.812 15.5418 10.5083 16.3218 10.5083C17.1018 10.5083 17.835 10.8122 18.3866 11.3636C19.5251 12.5021 19.5251 14.3546 18.3866 15.493Z" fill="white"/>
</svg>
