<svg width="32" height="32" viewBox="0 0 32 32" fill="none" xmlns="http://www.w3.org/2000/svg">
<circle cx="16" cy="16" r="16" fill="#F55F4B"/>
<g clip-path="url(#clip0)">
<path d="M12.1973 20.4752V23.7604C12.1973 23.9899 12.3446 24.1932 12.5628 24.2654C12.6173 24.2832 12.6733 24.2917 12.7285 24.2917C12.8943 24.2917 13.0543 24.2137 13.1563 24.0749L15.0781 21.4597L12.1973 20.4752Z" fill="white"/>
<path d="M22.7769 8.09764C22.614 7.98218 22.4001 7.96659 22.223 8.05939L6.28549 16.3823C6.09707 16.4808 5.98586 16.6819 6.00145 16.8937C6.01774 17.1062 6.1587 17.2876 6.35916 17.3563L10.7898 18.8707L20.2255 10.8028L12.924 19.5996L20.3494 22.1375C20.4047 22.1559 20.4628 22.1658 20.5209 22.1658C20.6172 22.1658 20.7128 22.1396 20.7971 22.0886C20.9317 22.0065 21.0231 21.8683 21.0465 21.7132L22.9944 8.60905C23.0234 8.41072 22.9398 8.2138 22.7769 8.09764Z" fill="white"/>
</g>
<defs>
<clipPath id="clip0">
<rect width="17" height="17" fill="white" transform="translate(6 8)"/>
</clipPath>
</defs>
</svg>
