<svg width="23" height="23" viewBox="0 0 23 23" fill="none" xmlns="http://www.w3.org/2000/svg">
<path d="M11.4167 12.393C11.4405 12.393 11.4643 12.393 11.4929 12.393C11.5024 12.393 11.5119 12.393 11.5214 12.393C11.5357 12.393 11.5548 12.393 11.5691 12.393C12.9646 12.3692 14.0934 11.8786 14.9269 10.9404C16.7606 8.87327 16.4558 5.32968 16.4225 4.99151C16.3034 2.45289 15.1031 1.23835 14.1125 0.671568C13.3742 0.24767 12.5121 0.0190516 11.55 0H11.5167C11.5119 0 11.5024 0 11.4976 0H11.469C10.9404 0 9.90205 0.085732 8.90661 0.652516C7.9064 1.2193 6.6871 2.43384 6.56803 4.99151C6.53469 5.32968 6.22987 8.87327 8.06358 10.9404C8.89232 11.8786 10.0211 12.3692 11.4167 12.393ZM7.83972 5.11058C7.83972 5.09629 7.84449 5.082 7.84449 5.07248C8.00166 1.65749 10.426 1.29074 11.4643 1.29074H11.4833C11.4929 1.29074 11.5071 1.29074 11.5214 1.29074C12.8074 1.31932 14.9936 1.84324 15.1412 5.07248C15.1412 5.08677 15.1412 5.10106 15.146 5.11058C15.1508 5.14392 15.4842 8.38269 13.9696 10.0878C13.3694 10.7641 12.5693 11.0975 11.5167 11.1071C11.5071 11.1071 11.5024 11.1071 11.4929 11.1071C11.4833 11.1071 11.4786 11.1071 11.469 11.1071C10.4212 11.0975 9.61628 10.7641 9.02092 10.0878C7.51108 8.39221 7.83496 5.13916 7.83972 5.11058Z" fill="#F55F4B"/>
<path d="M21.2806 18.2704C21.2806 18.2657 21.2806 18.2609 21.2806 18.2562C21.2806 18.2181 21.2759 18.1799 21.2759 18.1371C21.2473 17.194 21.1854 14.9888 19.1183 14.2839C19.104 14.2791 19.0849 14.2744 19.0706 14.2696C16.9226 13.7219 15.1365 12.4835 15.1174 12.4692C14.8269 12.2644 14.4268 12.3359 14.222 12.6264C14.0172 12.9169 14.0887 13.317 14.3792 13.5218C14.4602 13.579 16.3558 14.8983 18.7277 15.508C19.8375 15.9033 19.9613 17.0892 19.9946 18.1752C19.9946 18.2181 19.9946 18.2562 19.9994 18.2943C20.0042 18.7229 19.9756 19.385 19.8994 19.766C19.1278 20.2042 16.1034 21.7188 11.5024 21.7188C6.92051 21.7188 3.87703 20.1994 3.10067 19.7612C3.02447 19.3802 2.99113 18.7182 3.00065 18.2895C3.00065 18.2514 3.00542 18.2133 3.00542 18.1704C3.03876 17.0845 3.16259 15.8985 4.27235 15.5032C6.64427 14.8936 8.5399 13.5695 8.62086 13.5171C8.9114 13.3123 8.98284 12.9122 8.77804 12.6217C8.57324 12.3311 8.17315 12.2597 7.88262 12.4645C7.86356 12.4788 6.08701 13.7171 3.92942 14.2648C3.91037 14.2696 3.89608 14.2744 3.88179 14.2791C1.81469 14.9888 1.75278 17.194 1.7242 18.1323C1.7242 18.1752 1.7242 18.2133 1.71944 18.2514C1.71944 18.2562 1.71944 18.2609 1.71944 18.2657C1.71467 18.5134 1.70991 19.785 1.96234 20.4233C2.00997 20.5471 2.0957 20.6519 2.21001 20.7233C2.3529 20.8186 5.77742 23 11.5072 23C17.2369 23 20.6615 20.8138 20.8043 20.7233C20.9139 20.6519 21.0044 20.5471 21.052 20.4233C21.2902 19.7898 21.2854 18.5181 21.2806 18.2704Z" fill="#F55F4B"/>
</svg>
