<svg width="24" height="28" viewBox="0 0 24 28" fill="none" xmlns="http://www.w3.org/2000/svg">
<path d="M23.8125 7.65625V26.9062C23.8125 27.5103 23.3228 28 22.7188 28C22.1147 28 21.625 27.5103 21.625 26.9062V8.75H19.4375V12.0312C19.4375 12.6353 18.9478 13.125 18.3438 13.125C17.7397 13.125 17.25 12.6353 17.25 12.0312V8.75H6.75V12.0312C6.75 12.6353 6.26033 13.125 5.65625 13.125C5.05217 13.125 4.5625 12.6353 4.5625 12.0312V8.75H2.375V25.8125H22.7188C23.3228 25.8125 23.8125 26.3022 23.8125 26.9062C23.8125 27.5103 23.3228 28 22.7188 28H1.28125C0.677172 28 0.1875 27.5103 0.1875 26.9062V7.65625C0.1875 7.05217 0.677172 6.5625 1.28125 6.5625H4.61423C5.04873 2.87235 8.19501 0 12 0C15.805 0 18.9513 2.87235 19.3858 6.5625H22.7188C23.3228 6.5625 23.8125 7.05217 23.8125 7.65625ZM17.1767 6.5625C16.7589 4.0827 14.5967 2.1875 12 2.1875C9.40327 2.1875 7.24115 4.0827 6.82334 6.5625H17.1767Z" fill="#F55F4B"/>
</svg>
