<svg width="22" height="22" viewBox="0 0 22 22" fill="none" xmlns="http://www.w3.org/2000/svg">
<path d="M21.9999 7.39061V10.8281C21.9999 11.3028 21.6152 11.6875 21.1405 11.6875H20.5754L20.2133 14.9096C20.164 15.3487 19.792 15.673 19.3603 15.6732C19.3283 15.6732 19.296 15.6713 19.2633 15.6676C18.7916 15.6148 18.4523 15.1893 18.5053 14.7178L18.9531 10.7323C19.002 10.2975 19.3695 9.96874 19.8071 9.96874H20.2813V8.24998H1.71875V9.96874H16.3711C16.8458 9.96874 17.2305 10.3536 17.2305 10.8281C17.2305 11.3028 16.8458 11.6875 16.3711 11.6875H3.16996L4.01859 18.7671C4.12199 19.6303 4.85565 20.2812 5.72509 20.2812H16.3438C17.2196 20.2812 17.9539 19.6248 18.0518 18.7543C18.1046 18.2827 18.53 17.9435 19.0016 17.9963C19.4733 18.0494 19.8127 18.4747 19.7598 18.9464C19.5641 20.6871 18.0956 22 16.3438 22H5.72509C3.9862 22 2.51888 20.698 2.31192 18.9715L1.43895 11.6875H0.859376C0.384705 11.6875 0 11.3028 0 10.8281V7.39061C0 6.91594 0.384705 6.53123 0.859376 6.53123H3.90748L8.44858 0.35061C8.72955 -0.0317452 9.26733 -0.114158 9.64986 0.166985C10.0324 0.447961 10.1146 0.985742 9.83365 1.36827L6.04031 6.53123H15.9915L12.1979 1.36827C11.917 0.985742 11.9992 0.447961 12.3817 0.166985C12.7643 -0.114158 13.302 -0.0319131 13.5832 0.35061L18.1241 6.53123H21.1405C21.6152 6.53123 21.9999 6.91611 21.9999 7.39061ZM10.1406 14.2656V17.7031C10.1406 18.1778 10.5253 18.5625 11 18.5625C11.4745 18.5625 11.8594 18.1778 11.8594 17.7031V14.2656C11.8594 13.7909 11.4745 13.4062 11 13.4062C10.5253 13.4062 10.1406 13.7909 10.1406 14.2656ZM13.5781 14.2656V17.7031C13.5781 18.1778 13.9629 18.5625 14.4375 18.5625C14.912 18.5625 15.2969 18.1778 15.2969 17.7031V14.2656C15.2969 13.7909 14.912 13.4062 14.4375 13.4062C13.9629 13.4062 13.5781 13.7909 13.5781 14.2656ZM6.70314 14.2656V17.7031C6.70314 18.1778 7.08784 18.5625 7.56251 18.5625C8.03702 18.5625 8.42189 18.1778 8.42189 17.7031V14.2656C8.42189 13.7909 8.03702 13.4062 7.56251 13.4062C7.08784 13.4062 6.70314 13.7909 6.70314 14.2656Z" fill="#F55F4B"/>
</svg>
