<svg width="5" height="6" viewBox="0 0 5 6" fill="none" xmlns="http://www.w3.org/2000/svg">
<path d="M1.39392 5.43089C1.28731 5.43106 1.18399 5.39992 1.1019 5.34289C1.05569 5.31077 1.0175 5.27132 0.989506 5.2268C0.961512 5.18229 0.944266 5.13358 0.938756 5.08346C0.933246 5.03335 0.93958 4.98282 0.957395 4.93476C0.975211 4.8867 1.00416 4.84207 1.04258 4.8034L3.08675 2.75261L1.11558 0.697997C1.07768 0.658861 1.04938 0.613829 1.0323 0.56549C1.01522 0.517152 1.0097 0.466459 1.01606 0.416326C1.02242 0.366194 1.04053 0.317609 1.06936 0.273365C1.09819 0.229122 1.13715 0.190091 1.18403 0.158517C1.23124 0.123685 1.28652 0.0974125 1.34642 0.0813471C1.40631 0.0652816 1.46952 0.0597706 1.53207 0.0651596C1.59463 0.0705487 1.65518 0.0867215 1.70992 0.112663C1.76467 0.138605 1.81243 0.173755 1.85021 0.215908L4.05408 2.51157C4.12119 2.58003 4.15788 2.66591 4.15788 2.75453C4.15788 2.84315 4.12119 2.92902 4.05408 2.99748L1.77264 5.29315C1.72687 5.33945 1.66872 5.37605 1.60292 5.39998C1.53712 5.42391 1.46551 5.4345 1.39392 5.43089Z" fill="white"/>
</svg>
