<svg width="6" height="10" viewBox="0 0 6 10" fill="none" xmlns="http://www.w3.org/2000/svg">
<path d="M0.851445 9.99871C0.652853 9.99904 0.460393 9.94104 0.307477 9.83479C0.221413 9.77496 0.150271 9.70148 0.0981246 9.61856C0.0459785 9.53563 0.0138536 9.4449 0.0035897 9.35155C-0.00667418 9.25821 0.00512483 9.16408 0.0383107 9.07456C0.0714965 8.98504 0.125416 8.90189 0.196984 8.82987L4.00476 5.00977L0.332976 1.18255C0.262375 1.10965 0.209651 1.02576 0.177836 0.935721C0.146021 0.845678 0.135741 0.751251 0.147589 0.657866C0.159437 0.564481 0.193177 0.473981 0.246871 0.391566C0.300566 0.309151 0.373156 0.236447 0.460468 0.177633C0.548409 0.112751 0.651394 0.0638109 0.76296 0.0338851C0.874526 0.00395926 0.992266 -0.00630633 1.10879 0.00373205C1.22531 0.0137704 1.3381 0.0438963 1.44008 0.092219C1.54206 0.140542 1.63102 0.206018 1.70139 0.284539L5.80665 4.56077C5.93166 4.6883 6 4.84826 6 5.01334C6 5.17842 5.93166 5.33838 5.80665 5.46591L1.5569 9.74214C1.47164 9.82839 1.36333 9.89657 1.24075 9.94114C1.11818 9.98572 0.984807 10.0054 0.851445 9.99871Z" fill="white"/>
</svg>
