<svg width="11" height="15" viewBox="0 0 11 15" fill="none" xmlns="http://www.w3.org/2000/svg">
<path d="M5.5 0C2.46732 0 0 2.33899 0 5.21393C0 8.82742 5.50541 15 5.50541 15C5.50541 15 11 8.64972 11 5.21393C11 2.33899 8.53277 0 5.5 0ZM7.15946 6.74057C6.70189 7.17426 6.10099 7.39114 5.5 7.39114C4.8991 7.39114 4.29802 7.17426 3.84063 6.74057C2.92558 5.8732 2.92558 4.46182 3.84063 3.59436C4.28372 3.17413 4.87313 2.94269 5.5 2.94269C6.12687 2.94269 6.71618 3.17422 7.15946 3.59436C8.07452 4.46182 8.07452 5.8732 7.15946 6.74057Z" fill="#F55F4B"/>
</svg>
