<svg width="86" height="86" viewBox="0 0 86 86" fill="none" xmlns="http://www.w3.org/2000/svg">
<g clip-path="url(#clip0)">
<path d="M63.0213 51.4824L38.5758 27.95L22.7585 27.4125L16.9186 25.4251L12.0031 23.3745L3.92383 42.8992C3.92383 42.8992 14.4212 45.0976 17.0597 48.7634C19.6981 52.4291 37.7494 64.1903 42.9013 65.8149C48.0532 67.4395 48.8669 63.8281 48.8669 63.8281C53.9919 66.9524 54.6726 61.4403 54.6726 61.4403C61.7098 63.4781 60.9512 58.224 60.9512 58.224C63.4553 57.9862 64.2535 56.5719 64.4262 55.2167C64.4978 54.5279 64.4082 53.8319 64.1644 53.1838C63.9205 52.5357 63.5292 51.9532 63.0213 51.4824Z" fill="#F0C191"/>
<path d="M63.0213 51.4831L62.6545 51.1304C63.0565 51.8839 63.2158 52.7432 63.1107 53.5908C62.938 54.9453 62.1432 56.3549 59.6344 56.5967C59.6344 56.5967 60.395 61.8495 53.3598 59.8103C53.3598 59.8103 52.6751 65.3258 47.5541 62.2015C47.5541 62.2015 46.7384 65.8095 41.5899 64.1849C39.8 63.6212 36.4541 61.8333 32.7393 59.5886V60.4143C36.9647 63.03 40.9039 65.1847 42.9034 65.8162C48.0513 67.4401 48.8669 63.8281 48.8669 63.8281C53.9947 66.9517 54.6719 61.4437 54.6719 61.4437C61.7071 63.4754 60.954 58.2234 60.954 58.2234C63.456 57.9882 64.2509 56.5712 64.4235 55.2167C64.4971 54.5281 64.4086 53.8319 64.1652 53.1836C63.9217 52.5354 63.53 51.953 63.0213 51.4831Z" fill="#F9CFAA"/>
<path d="M20.7297 52.157C20.7297 52.157 22.4255 49.3109 24.6071 49.4695C26.5361 49.6092 28.3024 51.3951 27.2892 53.7977C27.2892 53.7977 30.3597 50.5418 32.9128 52.7792C32.9128 52.7792 34.8787 54.4588 33.9354 56.4207C33.9354 56.4207 35.7495 54.0691 37.6563 55.2933C39.9212 56.7466 38.3953 59.3481 38.3953 59.3481C38.3953 59.3481 41.5914 58.2113 42.5314 61.1621C43.1307 63.0434 41.6002 64.6559 41.6002 64.6559C41.6002 64.6559 37.9304 67.5342 35.9846 63.1005C35.9846 63.1005 30.8112 64.0196 30.9456 60.0099C30.9456 60.0099 26.2149 61.8495 25.7661 56.7997C25.0501 56.8585 24.3297 56.7705 23.6489 56.5412C22.9681 56.3119 22.3412 55.946 21.8067 55.466C21.3528 55.0573 21.0143 54.5365 20.8253 53.9557C20.6362 53.3749 20.6033 52.7546 20.7297 52.157Z" fill="#F9CFAA"/>
<path d="M65.7756 26.056L60.7507 28.4996C60.4383 28.6514 60.0957 28.7307 59.7484 28.7314C59.4011 28.7321 59.0581 28.6542 58.7451 28.5036C56.1342 27.2492 49.1293 24.0142 46.6783 24.1821C43.6421 24.3904 38.3685 28.7314 35.9954 28.8947C33.7883 29.0458 35.1751 34.8979 32.5366 39.1145C32.3306 39.4248 32.2229 39.79 32.2277 40.1625C32.2325 40.5349 32.3495 40.8972 32.5635 41.2021C33.7057 42.7561 36.1701 45.0143 39.551 42.048C44.3052 37.8749 44.1063 34.9704 44.1063 34.9704L63.6297 52.2269L68.8394 49.4567L77.9688 45.2494L65.7756 26.056Z" fill="#F9CFAA"/>
<path d="M76.5804 43.0652L68.3842 46.8384L63.1731 49.6099L61.5889 50.4256L63.6294 52.2289L68.8397 49.4581L77.9692 45.2488L76.5804 43.0652Z" fill="#DCB99A"/>
<path d="M72.8149 19.961L61.6491 25.8917C60.8791 26.3007 60.5864 27.2564 60.9954 28.0264L71.844 48.4513C72.253 49.2213 73.2087 49.514 73.9787 49.105L85.1445 43.1743C85.9145 42.7653 86.2072 41.8096 85.7982 41.0396L74.9496 20.6147C74.5406 19.8447 73.5849 19.5521 72.8149 19.961Z" fill="#2F3A5A"/>
<path d="M72.8149 19.961L61.6491 25.8917C60.8791 26.3007 60.5864 27.2564 60.9954 28.0264L71.844 48.4513C72.253 49.2213 73.2087 49.514 73.9787 49.105L85.1445 43.1743C85.9145 42.7653 86.2072 41.8096 85.7982 41.0396L74.9496 20.6147C74.5406 19.8447 73.5849 19.5521 72.8149 19.961Z" fill="#C61F09"/>
<path d="M85.1643 43.1619L73.9964 49.0986C73.8132 49.1962 73.6125 49.2566 73.4059 49.2764C73.1993 49.2962 72.9908 49.2749 72.7924 49.214C72.594 49.153 72.4096 49.0534 72.2498 48.921C72.09 48.7885 71.9579 48.6258 71.8611 48.4422L61.0104 28.0172C60.9123 27.8344 60.8513 27.6341 60.8309 27.4277C60.8105 27.2213 60.831 27.013 60.8914 26.8145C60.9518 26.6161 61.0508 26.4316 61.1827 26.2716C61.3146 26.1115 61.4768 25.9791 61.6601 25.882L61.7635 25.8262L71.8611 44.8403C71.9579 45.0239 72.09 45.1866 72.2498 45.319C72.4096 45.4515 72.594 45.551 72.7924 45.612C72.9908 45.673 73.1993 45.6942 73.4059 45.6744C73.6125 45.6546 73.8132 45.5942 73.9964 45.4967L85.0601 39.6164L85.8133 41.0274C86.0098 41.3966 86.0517 41.8287 85.9301 42.2288C85.8084 42.629 85.533 42.9645 85.1643 43.1619Z" fill="#951914"/>
<path d="M8.05696 20.9358L0.0997845 42.6561C-0.200186 43.4749 0.220419 44.3818 1.03923 44.6818L12.9132 49.0318C13.732 49.3318 14.639 48.9112 14.939 48.0924L22.8961 26.3721C23.1961 25.5532 22.7755 24.6463 21.9567 24.3463L10.0827 19.9963C9.26388 19.6963 8.35693 20.1169 8.05696 20.9358Z" fill="#E66961"/>
<path d="M22.8955 26.3818L14.9345 48.1063C14.7893 48.4985 14.495 48.8175 14.1157 48.9937C13.7364 49.1699 13.3028 49.189 12.9094 49.0469L1.03607 44.6891C0.658499 44.5511 0.348321 44.2734 0.16954 43.9133C-0.00924007 43.5533 -0.042979 43.1383 0.0752858 42.7541C0.184891 42.836 0.306024 42.9012 0.434739 42.9476L12.3081 47.2946C12.5028 47.3664 12.7097 47.399 12.9171 47.3905C13.1244 47.382 13.328 47.3326 13.5161 47.2452C13.7043 47.1578 13.8734 47.0341 14.0136 46.8811C14.1538 46.7282 14.2624 46.5491 14.3331 46.354L22.2942 24.6403C22.3078 24.6123 22.3149 24.5815 22.315 24.5503C22.6027 24.7466 22.8163 25.0338 22.9215 25.3658C23.0268 25.6979 23.0176 26.0556 22.8955 26.3818V26.3818Z" fill="#D95951"/>
<path d="M51.0518 48.891C51.0518 48.891 56.5544 54.7363 60.4164 57.2061L51.0518 48.891Z" fill="#DDB087"/>
<path d="M45.2754 52.5406C45.2754 52.5406 50.778 58.3859 54.64 60.8557L45.2754 52.5406Z" fill="#DDB087"/>
<path d="M39.6406 55.0158C39.6406 55.0158 45.1433 60.8611 49.0052 63.3309L39.6406 55.0158Z" fill="#DDB087"/>
<path d="M38.396 59.3474C37.3602 60.4348 36.542 61.7103 35.9854 63.1052C36.8808 61.914 37.6866 60.658 38.396 59.3474Z" fill="#C49B7A"/>
<path d="M33.7713 56.5201C32.6606 57.4904 31.7283 58.6476 31.0166 59.9393C31.0166 59.9393 33.1632 57.8531 33.7713 56.5201Z" fill="#C49B7A"/>
<path d="M27.2899 53.797C26.6573 54.7076 26.1508 55.6995 25.7842 56.7459C26.4541 55.8582 26.9637 54.8602 27.2899 53.797Z" fill="#C49B7A"/>
</g>
<defs>
<clipPath id="clip0">
<rect width="86" height="86" fill="white"/>
</clipPath>
</defs>
</svg>
