<svg width="50" height="50" viewBox="0 0 50 50" fill="none" xmlns="http://www.w3.org/2000/svg">
<circle cx="25" cy="25" r="24.5" fill="white" stroke="#F0F0F0"/>
<path d="M20.1473 25.5873C19.7386 26.3906 20.2027 26.7746 21.2615 27.4306C22.1616 27.9866 23.4051 28.19 24.2039 28.2713C23.8765 28.586 25.3768 27.1433 21.0561 31.2986C20.14 32.1766 21.6149 33.5853 22.5303 32.7259L25.0087 30.336C25.9575 31.2486 26.867 32.1233 27.4871 32.7293C28.4032 33.5919 29.8774 32.1953 28.9713 31.3019C28.9033 31.2373 25.6128 28.0813 25.8135 28.2746C26.6223 28.1933 27.8471 27.978 28.7366 27.434L28.7359 27.4333C29.7947 26.774 30.2588 26.3906 29.8561 25.5873C29.6127 25.1313 28.9566 24.75 28.0831 25.4093C28.0831 25.4093 26.9036 26.3126 25.0014 26.3126C23.0984 26.3126 21.9196 25.4093 21.9196 25.4093C21.0468 24.7466 20.388 25.1313 20.1473 25.5873Z" fill="#E66961"/>
<path d="M25 25.0946C27.319 25.0946 29.2126 23.2826 29.2126 21.052C29.2126 18.812 27.319 17 25 17C22.6804 17 20.7868 18.812 20.7868 21.052C20.7868 23.2826 22.6804 25.0946 25 25.0946ZM25 19.0527C26.1395 19.0527 27.069 19.9467 27.069 21.052C27.069 22.148 26.1395 23.042 25 23.042C23.8605 23.042 22.9311 22.148 22.9311 21.052C22.9304 19.946 23.8599 19.0527 25 19.0527Z" fill="#E66961"/>
</svg>
