<svg width="65" height="65" viewBox="0 0 65 65" fill="none" xmlns="http://www.w3.org/2000/svg">
<g clip-path="url(#clip0)">
<path d="M56.7369 22.2517H5.79559C4.53799 22.2517 3.51855 23.2711 3.51855 24.5287V30.6453H59.0141V24.5287C59.014 23.2713 57.9945 22.2517 56.7369 22.2517Z" fill="#FF9A94"/>
<path d="M38.2418 9.60616L33.6286 56.3078C33.5127 57.4809 32.4677 58.338 31.2945 58.2221L7.91994 55.9131C6.74677 55.7972 5.88971 54.7522 6.00562 53.579L10.6188 6.87755C10.7347 5.70438 11.7797 4.84732 12.9529 4.96323L36.3275 7.27225C37.5005 7.38803 38.3576 8.43298 38.2418 9.60616Z" fill="#B6FA4C"/>
<path d="M36.3286 7.27213L12.954 4.96311C11.7808 4.8472 10.7358 5.70426 10.6199 6.87743L10.2061 11.0674C10.5567 10.8893 10.9598 10.8041 11.3801 10.8456L34.7547 13.1546C35.9279 13.2705 36.785 14.3155 36.6691 15.4887L32.4697 58.0004C33.0975 57.6815 33.5553 57.0606 33.6295 56.3079L38.2428 9.60629C38.3588 8.43299 37.5016 7.38804 36.3286 7.27213Z" fill="#A8E83A"/>
<path d="M13.0963 13.4997L9.73092 47.5697C9.68281 48.0573 9.91234 48.5327 10.3282 48.7919C11.4742 49.5064 12.3616 50.5783 12.8493 51.8367C13.0246 52.2891 13.4433 52.601 13.926 52.6487L26.0433 53.8456C26.5259 53.8934 26.9977 53.6693 27.2579 53.26C27.9823 52.1214 29.0623 51.2437 30.326 50.7673C30.7846 50.5944 31.1027 50.1733 31.1508 49.6856L34.5162 15.6156C34.5644 15.128 34.3348 14.6527 33.9189 14.3934C32.7729 13.6789 31.8855 12.6071 31.3979 11.3486C31.2226 10.8964 30.8039 10.5843 30.3212 10.5366L18.2039 9.33969C17.7212 9.29196 17.2495 9.51603 16.9892 9.92533C16.2648 11.064 15.1848 11.9416 13.9211 12.418C13.4627 12.591 13.1446 13.0121 13.0963 13.4997Z" fill="#77DD00"/>
<path d="M33.9196 14.3934C32.7736 13.6789 31.8862 12.6071 31.3985 11.3486C31.2232 10.8963 30.8045 10.5843 30.3218 10.5366L18.2046 9.33969C17.7219 9.29196 17.2501 9.51603 16.9897 9.92533C16.2653 11.064 15.1854 11.9416 13.9217 12.4181C13.4631 12.591 13.145 13.0121 13.0968 13.4997L12.9688 14.7966L28.6694 16.2991C29.1521 16.3469 29.5709 16.6588 29.7461 17.1111C30.2337 18.3695 31.1211 19.4415 32.2671 20.156C32.683 20.4152 32.9126 20.8905 32.8645 21.3781L29.9456 50.927C30.0707 50.8701 30.1974 50.8162 30.3265 50.7674C30.7851 50.5945 31.1032 50.1734 31.1514 49.6858L34.5168 15.6157C34.565 15.128 34.3353 14.6527 33.9196 14.3934Z" fill="#73CC00"/>
<path d="M58.0613 16.5641L31.6336 55.3442C30.9698 56.3183 29.6419 56.5699 28.6678 55.9061L9.25789 42.6787C8.28378 42.0149 8.03216 40.687 8.696 39.7128L35.1238 0.932727C35.7877 -0.0413847 37.1156 -0.293006 38.0897 0.370832L57.4996 13.5982C58.4737 14.262 58.7252 15.5898 58.0613 16.5641Z" fill="#B6FA4C"/>
<path d="M57.4995 13.5982L38.0896 0.370828C37.1155 -0.29301 35.7876 -0.041516 35.1238 0.932722L32.8632 4.24988C33.0594 4.3112 33.2501 4.40159 33.4288 4.52334L52.8387 17.7507C53.8128 18.4145 54.0644 19.7425 53.4006 20.7166L29.2334 56.1797C30.1068 56.4529 31.0916 56.1398 31.6337 55.3443L58.0614 16.5641C58.7251 15.5898 58.4736 14.262 57.4995 13.5982Z" fill="#A8E83A"/>
<path d="M34.1248 7.93229L14.845 36.2234C14.569 36.6284 14.5429 37.1555 14.7836 37.5823C15.4472 38.7585 15.7124 40.1246 15.5373 41.4629C15.4744 41.9438 15.6924 42.4183 16.0932 42.6914L26.1553 49.5484C26.5561 49.8216 27.0775 49.8509 27.5021 49.6165C28.6837 48.9642 30.052 48.7114 31.3894 48.8987C31.8748 48.9666 32.3558 48.7495 32.6318 48.3445L51.9115 20.0535C52.1875 19.6485 52.2137 19.1214 51.9728 18.6946C51.3093 17.5184 51.044 16.1524 51.2191 14.8142C51.282 14.3333 51.064 13.8587 50.6632 13.5856L40.6011 6.72852C40.2003 6.45532 39.679 6.42599 39.2543 6.66047C38.0727 7.31276 36.7044 7.56552 35.367 7.37827C34.8818 7.31009 34.4006 7.52731 34.1248 7.93229Z" fill="#77DD00"/>
<path d="M51.9736 18.6946C51.3101 17.5184 51.045 16.1524 51.2199 14.8142C51.2828 14.3333 51.0648 13.8587 50.664 13.5855L40.6019 6.72851C40.2011 6.45544 39.6798 6.42599 39.2551 6.66047C38.0737 7.31275 36.7052 7.56552 35.3678 7.37813C34.8824 7.31021 34.4014 7.5273 34.1254 7.93228L33.3219 9.1113L45.8972 17.588C46.2979 17.8612 46.5161 18.3356 46.4531 18.8165C46.2781 20.1547 46.5434 21.5207 47.2068 22.6969C47.4475 23.1238 47.4214 23.651 47.1454 24.0558L30.252 48.8459C30.6307 48.8292 31.0116 48.8457 31.3903 48.8988C31.8757 48.9668 32.3567 48.7496 32.6327 48.3446L51.9123 20.0535C52.1883 19.6485 52.2145 19.1214 51.9736 18.6946Z" fill="#73CC00"/>
<path d="M36.3317 32.4226C40.1452 32.4226 43.2367 29.3311 43.2367 25.5176C43.2367 21.7041 40.1452 18.6126 36.3317 18.6126C32.5182 18.6126 29.4268 21.7041 29.4268 25.5176C29.4268 29.3311 32.5182 32.4226 36.3317 32.4226Z" fill="#B6FA4C"/>
<path d="M57.5249 65H4.32992C2.51627 65 1.0459 63.5298 1.0459 61.716V29.2169C1.0459 27.4032 2.51614 25.9328 4.32992 25.9328H57.5249C59.3386 25.9328 60.8089 27.4031 60.8089 29.2169V61.716C60.8089 63.5298 59.3387 65 57.5249 65Z" fill="#FF9A94"/>
<path d="M57.5252 25.9328H51.5508C53.3644 25.9328 54.8348 27.4032 54.8348 29.2169V61.716C54.8348 63.5296 53.3644 65 51.5508 65H57.5252C59.3389 65 60.8092 63.5298 60.8092 61.716V29.2169C60.8092 27.4032 59.3389 25.9328 57.5252 25.9328Z" fill="#BC1818"/>
<path d="M62.7638 39.1889H50.7911C47.3242 39.1889 44.5137 41.9994 44.5137 45.4664C44.5137 48.9333 47.3242 51.7438 50.7911 51.7438H62.7638C63.4209 51.7438 63.9536 51.2111 63.9536 50.554V40.3787C63.9536 39.7217 63.4209 39.1889 62.7638 39.1889Z" fill="#F55F4B"/>
<path d="M62.7639 39.1889H56.7683C57.4254 39.1889 57.9581 39.7216 57.9581 40.3787V48.9494C57.9581 49.6502 57.39 50.2183 56.6892 50.2183H50.7911C47.5825 50.2183 44.9379 47.8105 44.5614 44.7035C44.5311 44.9537 44.5137 45.2079 44.5137 45.4662C44.5137 48.9332 47.3242 51.7437 50.7911 51.7437H56.7682H62.7638C63.4209 51.7437 63.9536 51.211 63.9536 50.5539V49.0285V40.3787C63.9538 39.7217 63.4211 39.1889 62.7639 39.1889Z" fill="#ED2929"/>
<path d="M57.5249 25.9328H4.32992C2.51627 25.9328 1.0459 27.4032 1.0459 29.2169V32.8157H60.8089V29.2169C60.8089 27.4032 59.3387 25.9328 57.5249 25.9328Z" fill="#F55F4B"/>
<path d="M60.2481 27.3807C60.13 27.2061 59.9956 27.0433 59.847 26.8948C59.8453 26.893 59.8435 26.8915 59.8417 26.8897C59.6946 26.7432 59.5337 26.6104 59.3609 26.4937C59.3173 26.4643 59.2728 26.4357 59.2276 26.4083C59.1605 26.3675 59.0913 26.3298 59.0211 26.2938C58.9756 26.2704 58.9296 26.2482 58.8828 26.2269C58.4688 26.0385 58.0093 25.9327 57.5248 25.9327H51.5508C53.3643 25.9328 54.8344 27.4031 54.8344 29.2167V32.8155H60.8088V29.2167C60.8088 28.6499 60.6653 28.1167 60.4125 27.6514C60.3621 27.5585 60.3071 27.4681 60.2481 27.3807Z" fill="#ED2929"/>
<path d="M4.32992 65H57.5249C59.3386 65 60.8089 63.5296 60.8089 61.716V58.1171H1.0459V61.716C1.0459 63.5296 2.51614 65 4.32992 65Z" fill="#F55F4B"/>
<path d="M54.8345 58.1171V61.716C54.8345 61.7179 54.8345 61.7198 54.8345 61.7216C54.834 62.0249 54.5801 62.267 54.2768 62.267H4.32992C2.51627 62.267 1.0459 60.7966 1.0459 58.9829V61.7159C1.0459 63.5298 2.51614 65 4.32992 65H51.5506H57.5251C57.5899 65 57.6542 64.9976 57.718 64.9939C57.738 64.9928 57.7578 64.9909 57.7776 64.9893C57.8221 64.9859 57.8664 64.9818 57.9105 64.9766C57.9323 64.9741 57.9542 64.9713 57.976 64.9684C58.0198 64.9624 58.0632 64.9553 58.1064 64.9477C58.1255 64.9443 58.1448 64.9412 58.1639 64.9374C58.2249 64.9254 58.2856 64.9121 58.3454 64.8967C58.3454 64.8967 58.3456 64.8967 58.3457 64.8967C58.372 64.8899 58.3976 64.8819 58.4236 64.8746C58.5535 64.8376 58.6805 64.794 58.8033 64.742C58.8525 64.7212 58.901 64.6994 58.9488 64.6763C58.9967 64.6532 59.0439 64.629 59.0904 64.6038L59.0905 64.6037C59.1834 64.5531 59.2737 64.4983 59.361 64.4394L59.3612 64.4392L59.3613 64.4391C59.4357 64.3888 59.5073 64.3351 59.577 64.2792C59.5803 64.2765 59.5837 64.274 59.5869 64.2713C59.6576 64.2142 59.7257 64.154 59.7914 64.0913C59.8687 64.0174 59.9425 63.9399 60.0123 63.8589V63.8588C60.1215 63.7321 60.2214 63.5972 60.3105 63.4547C60.3129 63.4509 60.3155 63.4471 60.3179 63.4433C60.3506 63.3904 60.3824 63.3368 60.4122 63.2819C60.4122 63.2818 60.4123 63.2817 60.4125 63.2814V63.2813C60.4918 63.1352 60.5601 62.9821 60.6169 62.8235C60.6233 62.8055 60.6292 62.7871 60.6354 62.7689C60.6491 62.7284 60.6622 62.6875 60.6744 62.6464C60.6805 62.6255 60.6864 62.6045 60.6923 62.5834C60.7036 62.5421 60.714 62.5003 60.7236 62.4581C60.7281 62.439 60.7329 62.4198 60.737 62.4005C60.7498 62.34 60.7615 62.2789 60.7709 62.2172C60.7709 62.2168 60.771 62.2166 60.771 62.2162C60.771 62.216 60.771 62.2158 60.771 62.2157C60.782 62.1436 60.7898 62.0703 60.796 61.9967C60.7975 61.978 60.7989 61.9593 60.8003 61.9407C60.8054 61.8664 60.8088 61.7916 60.8088 61.716V58.9831V58.1172L54.8345 58.1171Z" fill="#ED2929"/>
<path d="M51.0153 48.3817C52.6251 48.3817 53.93 47.0767 53.93 45.467C53.93 43.8572 52.6251 42.5523 51.0153 42.5523C49.4055 42.5523 48.1006 43.8572 48.1006 45.467C48.1006 47.0767 49.4055 48.3817 51.0153 48.3817Z" fill="#F2F2F2"/>
</g>
<defs>
<clipPath id="clip0">
<rect width="65" height="65" fill="white"/>
</clipPath>
</defs>
</svg>
