<svg width="78" height="78" viewBox="0 0 78 78" fill="none" xmlns="http://www.w3.org/2000/svg">
<g clip-path="url(#clip0)">
<path d="M18.3608 27.852C16.7803 27.852 15.4994 26.5727 15.4994 24.9921C15.4994 24.2027 15.8192 23.4865 16.3372 22.9685C16.8552 22.4505 17.5698 22.1307 18.3608 22.1307H29.5306C32.6557 22.1307 35.6904 23.1776 38.1524 25.1014L39.5114 26.1639H76.2157C76.993 26.1639 77.6232 26.7941 77.6232 27.5714V42.5009C77.6232 43.2782 76.993 43.9084 76.2157 43.9084H41.3306L39.7594 44.8102C36.8705 46.4684 33.5976 47.3409 30.2667 47.3409H7.73626C6.44533 47.3409 5.32945 46.3631 5.24192 45.0752C5.19168 44.3358 5.47237 43.6613 5.94917 43.1829C6.39072 42.7429 7.00077 42.4699 7.67323 42.4699H5.89456C5.2221 42.4699 4.61361 42.1968 4.17207 41.7569C3.73208 41.3153 3.45904 40.7068 3.45904 40.0328C3.45904 38.6879 4.54964 37.5973 5.89456 37.5973H2.43553C1.76306 37.5973 1.15457 37.3242 0.713027 36.8842C0.273041 36.4427 0 35.8342 0 35.1617C0 33.8153 1.0906 32.7247 2.43553 32.7247H5.50451C4.83205 32.7247 4.22199 32.4516 3.78045 32.0116C3.34046 31.5701 3.06742 30.9616 3.06742 30.2891C3.06742 28.9442 4.15802 27.852 5.50451 27.852H18.3608Z" fill="#FFE6C6"/>
<path d="M20.2981 42.4811V41.9235C20.2981 40.475 19.1239 39.3007 17.6754 39.3007H5.1353C4.62822 39.3007 4.14814 39.1475 3.74638 38.8857C3.56336 39.2276 3.45898 39.6179 3.45898 40.0326C3.45898 40.7067 3.73203 41.3152 4.17201 41.7567C4.6109 42.194 5.21487 42.4658 5.8825 42.4691L6.61425 42.4697H7.67318C7.6674 42.4697 7.66179 42.4705 7.65617 42.4705L20.2981 42.4811Z" fill="#F8D3AA"/>
<path d="M10.437 29.5441H5.06671C4.46368 29.5441 3.89887 29.3274 3.45904 28.9686C3.21284 29.3494 3.06836 29.802 3.06836 30.289C3.06836 30.9614 3.3414 31.5699 3.78139 32.0115C4.22293 32.4515 4.83298 32.7245 5.50545 32.7245H10.4372V29.5441H10.437Z" fill="#F8D3AA"/>
<path d="M10.4362 34.4167H2.02487C1.41373 34.4167 0.841434 34.1942 0.399108 33.8265C0.147442 34.2102 0 34.6684 0 35.1617C0 35.8342 0.273041 36.4427 0.713027 36.8842C1.15457 37.3242 1.76306 37.5973 2.43553 37.5973H10.4362V34.4167Z" fill="#F8D3AA"/>
<path d="M76.5942 37.6597H49.9512V43.9084H76.2174C76.9947 43.9084 77.6249 43.2782 77.6249 42.5009V37.7795C77.2935 37.702 76.9488 37.6597 76.5942 37.6597Z" fill="#F8D3AA"/>
<path d="M18.7378 42.4683C17.1573 42.4683 15.8763 41.1889 15.8763 39.6084C15.8763 38.8189 16.1962 38.1028 16.7142 37.5848C17.2322 37.0668 17.9468 36.7469 18.7378 36.7469H29.9075C33.0327 36.7469 36.0673 37.7939 38.5294 39.7176L39.8883 40.7801H76.5927C77.37 40.7801 78.0002 41.4103 78.0002 42.1876V57.1172C78.0002 57.8945 77.37 58.5247 76.5927 58.5247H41.7076L40.1364 59.4265C37.2475 61.0847 33.9746 61.9572 30.6436 61.9572H8.11322C6.82228 61.9572 5.7064 60.9794 5.61887 59.6914C5.56863 58.952 5.84932 58.2775 6.32613 57.7992C6.76767 57.3592 7.37773 57.0861 8.05019 57.0861H6.27152C5.59906 57.0861 4.99057 56.8131 4.54902 56.3731C4.10903 55.9316 3.83599 55.3231 3.83599 54.6491C3.83599 53.3041 4.9266 52.2135 6.27152 52.2135H2.81248C2.14002 52.2135 1.53153 51.9405 1.08998 51.5005C0.649994 51.059 0.376953 50.4505 0.376953 49.778C0.376953 48.4315 1.46756 47.3409 2.81248 47.3409H5.88146C5.209 47.3409 4.59895 47.0679 4.1574 46.6279C3.71741 46.1864 3.44437 45.5779 3.44437 44.9054C3.44437 43.5605 4.53498 42.4683 5.88146 42.4683H18.7378Z" fill="#FFE6C6"/>
<path d="M18.7378 42.4683C17.1573 42.4683 15.8763 41.1889 15.8763 39.6084C15.8763 38.8189 16.1962 38.1028 16.7142 37.5848C17.2322 37.0668 17.9468 36.7469 18.7378 36.7469H29.9075C33.0327 36.7469 36.0673 37.7939 38.5294 39.7176L39.8883 40.7801H76.5927C77.37 40.7801 78.0002 41.4103 78.0002 42.1876V57.1172C78.0002 57.8945 77.37 58.5247 76.5927 58.5247H41.7076L40.1364 59.4265C37.2475 61.0847 33.9746 61.9572 30.6436 61.9572H8.11322C6.82228 61.9572 5.7064 60.9794 5.61887 59.6914C5.56863 58.952 5.84932 58.2775 6.32613 57.7992C6.76767 57.3592 7.37773 57.0861 8.05019 57.0861H6.27152C5.59906 57.0861 4.99057 56.8131 4.54902 56.3731C4.10903 55.9316 3.83599 55.3231 3.83599 54.6491C3.83599 53.3041 4.9266 52.2135 6.27152 52.2135H2.81248C2.14002 52.2135 1.53153 51.9405 1.08998 51.5005C0.649994 51.059 0.376953 50.4505 0.376953 49.778C0.376953 48.4315 1.46756 47.3409 2.81248 47.3409H5.88146C5.209 47.3409 4.59895 47.0679 4.1574 46.6279C3.71741 46.1864 3.44437 45.5779 3.44437 44.9054C3.44437 43.5605 4.53498 42.4683 5.88146 42.4683H18.7378Z" fill="#FFE6C6"/>
<path d="M43.8721 67H36.1279C36.1279 67 35.7128 70.5358 33.1194 74.6189C32.7041 75.2729 33.4238 76 34.4772 76H45.5227C46.5763 76 47.296 75.2729 46.8805 74.6189C44.2873 70.5358 43.8721 67 43.8721 67Z" fill="#ED665E"/>
<path d="M45.4867 76H41.6924C42.7711 76 43.5094 75.2722 43.083 74.619C40.4248 70.5362 40 67 40 67H43.7943C43.7943 67 44.2207 70.5362 46.8773 74.619C47.3037 75.2722 46.5654 76 45.4867 76Z" fill="#AB2118"/>
<path d="M75.3736 10.6309C76.1842 8.90875 76.47 6.95391 76.2636 4.77781C76.1504 3.585 75.8486 2.40547 75.3514 1.31422C75.3219 1.24938 75.2133 1.05281 75.0904 0.834844C74.825 0.363594 74.3301 0.0671882 73.7894 0.0556257C73.5394 0.0503132 73.3147 0.0473445 73.2436 0.0518757C72.0468 0.128594 70.8645 0.419376 69.7592 0.882969C67.8378 1.68859 66.339 2.79656 65.0336 4.44078C63.8862 5.88562 63.3048 7.68015 63.0639 9.49125C62.8643 10.9905 62.9461 12.5259 63.3384 13.9881C63.5356 14.723 63.8078 15.4411 64.1642 16.1139C64.1664 16.1181 64.1693 16.1233 64.1726 16.1294C64.4343 16.5956 64.9256 16.8898 65.4601 16.9005C65.467 16.9006 65.4729 16.9006 65.4778 16.9006C66.2392 16.8972 67.0008 16.7983 67.7417 16.6252C69.2158 16.2808 70.6081 15.628 71.8354 14.7444C73.4653 13.5711 74.6364 12.1972 75.3736 10.6309Z" fill="#A7EEDC"/>
<path d="M75.3727 10.6308C74.6354 12.197 73.4649 13.5719 71.8349 14.7441C70.6071 15.6286 69.2159 16.2808 67.7413 16.6258C67.0007 16.7973 66.239 16.8972 65.4771 16.9005H65.4607C64.9262 16.8891 64.434 16.5947 64.1724 16.1289C64.1691 16.1241 64.1659 16.1175 64.1643 16.1142C64.117 16.0242 64.0695 15.9328 64.0254 15.8395C64.4684 15.7937 64.9082 15.7169 65.3415 15.6155C66.8162 15.2705 68.209 14.6181 69.4351 13.7355C71.0651 12.5617 72.2371 11.1884 72.9745 9.62218C73.7837 7.89905 74.0698 5.94374 73.8638 3.7678C73.751 2.57593 73.4485 1.39562 72.9516 0.305303C72.9352 0.267647 72.8927 0.18921 72.8356 0.0862408C72.9712 0.0715533 73.107 0.0601471 73.2426 0.0518658C73.3145 0.0470221 73.5385 0.0503033 73.7885 0.0551471C74.3296 0.0665533 74.8251 0.364053 75.0899 0.834991C75.2126 1.05233 75.3221 1.25015 75.3515 1.31405C75.8485 2.40608 76.1509 3.58483 76.2637 4.77827C76.4698 6.95405 76.1837 8.90936 75.3727 10.6308Z" fill="#86E8D0"/>
<path d="M50.3711 9.25875C50.1494 9.18703 49.9145 9.12984 49.6692 9.08593C49.8117 8.8814 49.9372 8.67484 50.0433 8.4675C51.7792 5.07328 48.0178 1.3125 44.624 3.04828C44.4167 3.15437 44.2101 3.28 44.0056 3.42234C43.9617 3.17703 43.9044 2.94203 43.8328 2.72046C42.6604 -0.906567 37.3414 -0.907035 36.1689 2.72046C36.0972 2.94203 36.04 3.17703 35.9961 3.42234C35.7915 3.28 35.585 3.15422 35.3776 3.04828C31.9839 1.3125 28.2225 5.07328 29.9584 8.4675C30.0645 8.67484 30.1901 8.8814 30.3325 9.08593C30.0872 9.12984 29.8522 9.18703 29.6306 9.25875C26.0036 10.4311 26.0031 15.7502 29.6306 16.9227C29.8522 16.9944 30.0872 17.0516 30.3325 17.0955C30.19 17.3 30.0644 17.5066 29.9584 17.7141C28.2228 21.1078 31.9834 24.8692 35.3776 23.1333C35.585 23.0272 35.7915 22.9016 35.9961 22.7592C36.04 23.0045 36.0972 23.2394 36.1689 23.4611C37.3414 27.0886 42.6604 27.0881 43.8328 23.4611C43.9045 23.2395 43.9617 23.0045 44.0056 22.7592C44.2101 22.9016 44.4167 23.0272 44.624 23.1333C48.0183 24.8692 51.779 21.1078 50.0433 17.7141C49.9372 17.5067 49.8115 17.3002 49.6692 17.0955C49.9145 17.0516 50.1494 16.9944 50.3711 16.9227C53.9986 15.7502 53.9981 10.4312 50.3711 9.25875Z" fill="#A7EEDC"/>
<path d="M40.001 19.2031C43.3768 19.2031 46.1134 16.4665 46.1134 13.0908C46.1134 9.71502 43.3768 6.97843 40.001 6.97843C36.6253 6.97843 33.8887 9.71502 33.8887 13.0908C33.8887 16.4665 36.6253 19.2031 40.001 19.2031Z" fill="#FEE97D"/>
<path d="M46.1133 13.0912C46.1133 16.4672 43.3766 19.2022 40.0006 19.2022C38.2302 19.2022 36.6361 18.4502 35.5195 17.2469C36.2552 17.5625 37.0644 17.7356 37.9162 17.7356C41.2922 17.7356 44.0273 14.9989 44.0273 11.623C44.0273 10.0159 43.4078 8.55437 42.3942 7.46562C44.5814 8.39609 46.1133 10.5655 46.1133 13.0912Z" fill="#FEDF30"/>
<path d="M50.3716 9.25828C50.1493 9.18796 49.9138 9.13078 49.6687 9.08656C49.8109 8.88218 49.9368 8.67453 50.043 8.46703C51.5699 5.48343 48.8463 2.21546 45.8579 2.65031C46.9762 3.79953 48.3516 6.41328 47.0345 9.58281C47.0099 9.64187 46.9815 9.69953 46.9501 9.7564C46.8255 9.98218 46.949 10.2633 47.1977 10.3308C47.2527 10.3456 47.3073 10.3603 47.3615 10.3741C50.3863 11.1441 50.2798 14.5348 47.5668 15.3133C47.5112 15.3292 47.4548 15.3451 47.3977 15.3608C47.144 15.4303 47.0266 15.7166 47.1551 15.9462C47.1846 15.9989 47.2129 16.0517 47.2398 16.1045C48.976 19.4969 46.701 22.1928 43.1943 20.9131C43.1476 20.8961 43.1005 20.8686 43.0535 20.8347C42.8152 20.6626 42.4784 20.802 42.4295 21.0919C42.4202 21.1462 42.4115 21.1969 42.403 21.2417C41.7609 24.7097 38.4813 24.7744 37.0215 24.9281C38.944 26.9945 42.848 26.5058 43.8323 23.4617C43.9041 23.2394 43.9613 23.0041 44.0055 22.7587C44.2099 22.9009 44.4159 23.0269 44.6235 23.1331C48.0174 24.8694 51.7791 21.1076 50.043 17.7136C49.9368 17.5059 49.8109 17.3 49.6687 17.0956C49.9138 17.0514 50.1493 16.9942 50.3716 16.9223C53.9993 15.7502 53.9977 10.4303 50.3716 9.25828Z" fill="#86E8D0"/>
<path d="M4.6265 10.6309C3.81587 8.90875 3.53009 6.95391 3.7365 4.77781C3.84962 3.585 4.1515 2.40547 4.64868 1.31422C4.67822 1.24938 4.78681 1.05281 4.90962 0.834844C5.17509 0.363594 5.66993 0.0671882 6.21072 0.0556257C6.46072 0.0503132 6.6854 0.0473445 6.7565 0.0518757C7.95322 0.128594 9.13556 0.419376 10.2409 0.882969C12.1623 1.68859 13.661 2.79656 14.9665 4.44078C16.1138 5.88562 16.6952 7.68015 16.9362 9.49125C17.1357 10.9905 17.054 12.5259 16.6617 13.9881C16.4645 14.723 16.1923 15.4411 15.8359 16.1139C15.8337 16.1181 15.8307 16.1233 15.8274 16.1294C15.5657 16.5956 15.0745 16.8898 14.5399 16.9005C14.5331 16.9006 14.5271 16.9006 14.5223 16.9006C13.7609 16.8972 12.9993 16.7983 12.2584 16.6252C10.7843 16.2808 9.39197 15.628 8.16462 14.7444C6.53493 13.5711 5.36368 12.1972 4.6265 10.6309Z" fill="#A7EEDC"/>
<path d="M16.6605 13.9887C16.4643 14.7228 16.1913 15.4405 15.8349 16.1141C15.8334 16.1173 15.8301 16.1239 15.8268 16.1287C15.5996 16.5342 15.1974 16.8087 14.7446 16.8823C14.8362 16.6256 14.9146 16.3658 14.9849 16.1042C15.3773 14.6427 15.459 13.1077 15.2596 11.6067C15.0193 9.79703 14.4373 8.00187 13.2913 6.55671C11.9851 4.91374 10.486 3.80531 8.56508 2.99937C7.45992 2.53671 6.27789 2.24562 5.08117 2.1689C5.0093 2.16406 4.78523 2.16734 4.53523 2.17218C4.45352 2.17374 4.37336 2.18203 4.29492 2.19843C4.39789 1.89921 4.51555 1.60328 4.64805 1.3139C4.67742 1.25015 4.78695 1.05234 4.90961 0.834838C5.17445 0.364057 5.66977 0.0664007 6.21102 0.0549945C6.46117 0.0501507 6.68508 0.0468695 6.75695 0.0517132C7.95367 0.128588 9.1357 0.419526 10.2409 0.882182C12.1618 1.68812 13.661 2.79656 14.9655 4.44124C16.1132 5.88484 16.6952 7.67984 16.9355 9.49124C17.1346 10.9905 17.0529 12.5256 16.6605 13.9887Z" fill="#86E8D0"/>
<path d="M13.5147 14.6106C13.1263 14.6106 12.7463 14.4176 12.5232 14.065L6.85348 5.09984C6.50754 4.55281 6.67051 3.8289 7.21754 3.48296C7.76457 3.13718 8.48832 3.3 8.83442 3.84703L14.5041 12.8122C14.85 13.3592 14.6871 14.0831 14.14 14.4291C13.9457 14.552 13.7289 14.6106 13.5147 14.6106Z" fill="#71D3B9"/>
<path d="M66.4854 14.6106C66.2712 14.6106 66.0545 14.552 65.8601 14.4291C65.3131 14.0831 65.1501 13.3592 65.4961 12.8122L71.1657 3.84703C71.5117 3.3 72.2359 3.13718 72.7826 3.48296C73.3297 3.8289 73.4926 4.55281 73.1467 5.09984L67.477 14.065C67.254 14.4175 66.8739 14.6106 66.4854 14.6106Z" fill="#71D3B9"/>
<path d="M39.9988 29.6642H12.3926C12.3926 29.6642 20.1187 54.2912 35.1643 62.283H39.9988H44.8334C59.879 54.2914 67.6051 29.6642 67.6051 29.6642H39.9988Z" fill="#A7342D"/>
<path d="M67.6057 29.6636C67.6057 29.6636 59.8795 54.2908 44.8341 62.2834H41.0332C56.0785 54.2908 63.8048 29.6636 63.8048 29.6636H67.6057Z" fill="#921414"/>
<path d="M9.88575 36.7536C8.05106 35.6078 6.57434 33.9167 5.43153 31.7111C4.80512 30.5022 4.36699 29.1897 4.17012 27.8412C4.1584 27.7611 4.14106 27.5064 4.12418 27.2228C4.08762 26.6092 4.37778 26.0216 4.88715 25.6775C5.12262 25.5184 5.33543 25.3773 5.40606 25.338C6.59637 24.6744 7.90481 24.2241 9.24575 23.9862C11.577 23.5727 13.6907 23.708 15.9501 24.4745C17.9356 25.1481 19.5959 26.5042 20.9412 28.0855C22.0548 29.3945 22.9223 30.9114 23.4479 32.5495C23.7122 33.3728 23.8942 34.2264 23.9681 35.0884C23.9686 35.0939 23.969 35.1006 23.9695 35.1084C24.0067 35.7148 23.7186 36.2984 23.2145 36.6377C23.2079 36.642 23.2025 36.6458 23.1978 36.6486C22.4686 37.1142 21.6801 37.4886 20.8659 37.7795C19.2459 38.3583 17.514 38.592 15.7976 38.5039C13.5189 38.3867 11.5542 37.7956 9.88575 36.7536Z" fill="#A7EEDC"/>
<path d="M23.9692 35.1076C24.0069 35.7125 23.7208 36.2945 23.2189 36.6345C23.1372 36.2536 23.0342 35.8776 22.9164 35.5081C22.39 33.87 21.5219 32.3528 20.4086 31.0434C19.0632 29.4625 17.4038 28.1072 15.4175 27.4337C13.1582 26.667 11.0444 26.5312 8.713 26.945C7.37237 27.182 6.06456 27.6333 4.8744 28.297C4.80253 28.3362 4.58987 28.4769 4.35456 28.6355C4.34315 28.6436 4.33175 28.6501 4.3219 28.66C4.26143 28.3886 4.21081 28.1156 4.16987 27.8409C4.15846 27.7608 4.14206 27.5075 4.12409 27.223C4.08815 26.6098 4.37753 26.0214 4.88753 25.6781C5.123 25.518 5.3355 25.3773 5.40581 25.3381C6.59596 24.6744 7.90549 24.2248 9.24596 23.9861C11.5772 23.5725 13.6911 23.7081 15.9505 24.4748C17.9352 25.1484 19.5961 26.5037 20.9416 28.0862C22.0549 29.3941 22.923 30.9112 23.4478 32.5494C23.7127 33.3733 23.8941 34.2267 23.9677 35.0883C23.9692 35.093 23.9692 35.1011 23.9692 35.1076Z" fill="#86E8D0"/>
<path d="M20.552 35.3428C20.3868 35.3428 20.2193 35.3077 20.0598 35.2338L8.67525 29.9539C8.08806 29.6817 7.83275 28.985 8.10525 28.3978C8.37744 27.8105 9.07415 27.5553 9.66134 27.8278L21.0459 33.1077C21.6331 33.3798 21.8884 34.0766 21.6159 34.6638C21.4176 35.0913 20.9942 35.3428 20.552 35.3428Z" fill="#71D3B9"/>
<path d="M45.5037 67.4425H34.4961C33.2125 67.4425 32.1719 66.4019 32.1719 65.1183V64.0514C32.1719 62.7678 33.2125 61.7272 34.4961 61.7272H45.5037C46.7875 61.7272 47.828 62.7678 47.828 64.0514V65.1183C47.828 66.4019 46.7873 67.4425 45.5037 67.4425Z" fill="#E66961"/>
<path d="M47.8288 64.0505V65.118C47.8288 66.4014 46.7891 67.4427 45.5057 67.4427H42.3848C43.668 67.4427 44.7095 66.4012 44.7095 65.118V64.0505C44.7095 62.7672 43.668 61.7273 42.3848 61.7273H45.5057C46.789 61.7273 47.8288 62.7672 47.8288 64.0505Z" fill="#AB2118"/>
<path d="M70.1143 36.7536C71.949 35.6078 73.4257 33.9167 74.5685 31.7111C75.1949 30.5022 75.633 29.1897 75.8299 27.8412C75.8416 27.7611 75.859 27.5064 75.8758 27.2228C75.9124 26.6092 75.6223 26.0216 75.1129 25.6775C74.8774 25.5184 74.6646 25.3773 74.594 25.338C73.4037 24.6744 72.0952 24.2241 70.7543 23.9862C68.423 23.5727 66.3093 23.708 64.0499 24.4745C62.0645 25.1481 60.4041 26.5042 59.0588 28.0855C57.9452 29.3945 57.0777 30.9114 56.5521 32.5495C56.2879 33.3728 56.1059 34.2264 56.032 35.0884C56.0315 35.0939 56.031 35.1006 56.0306 35.1084C55.9934 35.7148 56.2815 36.2984 56.7856 36.6377C56.7921 36.642 56.7976 36.6458 56.8023 36.6486C57.5315 37.1142 58.3199 37.4886 59.1341 37.7795C60.7541 38.3583 62.486 38.592 64.2024 38.5039C66.4812 38.3867 68.4457 37.7956 70.1143 36.7536Z" fill="#A7EEDC"/>
<path d="M75.8764 27.2228C75.8584 27.5073 75.842 27.7606 75.8306 27.8408C75.6328 29.1895 75.1947 30.5023 74.5686 31.7105C73.4258 33.9175 71.9495 35.608 70.1136 36.7539C68.4461 37.7953 66.4809 38.387 64.202 38.5031C62.4855 38.5914 60.7542 38.3577 59.1341 37.7789C58.3198 37.488 57.5319 37.1136 56.8028 36.6492C56.798 36.6459 56.7914 36.6411 56.7848 36.6378C56.3419 36.3386 56.0655 35.8514 56.0312 35.3267C56.3189 35.4542 56.61 35.5703 56.9059 35.6766C58.5261 36.2553 60.2591 36.4891 61.9739 36.4008C64.2528 36.2847 66.218 35.6928 67.8872 34.6514C69.7214 33.5055 71.1978 31.815 72.3405 29.608C72.9666 28.3998 73.4047 27.087 73.6025 25.7383C73.6139 25.6583 73.6319 25.4048 73.6483 25.1203C73.6531 25.0336 73.6516 24.9486 73.6434 24.8636C73.9672 25.0075 74.2859 25.1644 74.5949 25.3377C74.6652 25.3769 74.8777 25.5175 75.1131 25.6777C75.623 26.0211 75.9124 26.6097 75.8764 27.2228Z" fill="#86E8D0"/>
<path d="M59.4484 35.3428C59.0062 35.3428 58.5827 35.0913 58.3845 34.6636C58.1121 34.0764 58.3674 33.3797 58.9545 33.1075L70.339 27.8277C70.926 27.5553 71.6229 27.8108 71.8951 28.3977C72.1674 28.9848 71.9121 29.6816 71.3251 29.9537L59.9405 35.2336C59.7812 35.3078 59.6132 35.3428 59.4484 35.3428Z" fill="#71D3B9"/>
<path d="M32.6094 12.1142C32.3876 12.0425 32.1528 11.9853 31.9075 11.9414C32.05 11.7369 32.1754 11.5303 32.2815 11.323C34.0175 7.92874 30.2561 4.16796 26.8623 5.90375C26.655 6.00984 26.4484 6.13546 26.2439 6.27781C26.2 6.0325 26.1426 5.7975 26.0711 5.57593C24.8987 1.9489 19.5797 1.94843 18.4072 5.57593C18.3354 5.7975 18.2783 6.0325 18.2344 6.27781C18.0298 6.13546 17.8233 6.00968 17.6159 5.90375C14.2222 4.16796 10.4608 7.92874 12.1967 11.323C12.3028 11.5303 12.4284 11.7369 12.5708 11.9414C12.3254 11.9853 12.0904 12.0425 11.8689 12.1142C8.24186 13.2866 8.24139 18.6056 11.8689 19.7781C12.0904 19.8498 12.3254 19.907 12.5708 19.9509C12.4283 20.1555 12.3026 20.362 12.1967 20.5695C10.4611 23.9633 14.2219 27.7247 17.6159 25.9887C17.8233 25.8826 18.0298 25.757 18.2344 25.6147C18.2783 25.86 18.3354 26.0948 18.4072 26.3166C19.5797 29.9441 24.8987 29.9436 26.0711 26.3166C26.1428 26.095 26.2 25.86 26.2439 25.6147C26.4484 25.757 26.655 25.8826 26.8623 25.9887C30.2565 27.7247 34.0173 23.9633 32.2815 20.5695C32.1754 20.3622 32.0498 20.1556 31.9075 19.9509C32.1528 19.907 32.3876 19.8498 32.6094 19.7781C36.2369 18.6056 36.2364 13.2866 32.6094 12.1142Z" fill="#B3DAFE"/>
<path d="M68.1308 12.1142C67.9091 12.0425 67.6743 11.9853 67.429 11.9414C67.5715 11.7369 67.6969 11.5303 67.803 11.323C69.539 7.92874 65.7776 4.16796 62.3838 5.90375C62.1765 6.00984 61.9699 6.13546 61.7654 6.27781C61.7215 6.0325 61.6641 5.7975 61.5926 5.57593C60.4202 1.9489 55.1012 1.94843 53.9287 5.57593C53.8571 5.7975 53.7997 6.0325 53.7558 6.27781C53.5513 6.13546 53.3447 6.00968 53.1374 5.90375C49.7437 4.16796 45.9822 7.92874 47.7182 11.323C47.8243 11.5303 47.9499 11.7369 48.0922 11.9414C47.8469 11.9853 47.6119 12.0425 47.3904 12.1142C43.7633 13.2866 43.7629 18.6056 47.3904 19.7781C47.6119 19.8498 47.8469 19.907 48.0922 19.9509C47.9497 20.1555 47.8241 20.362 47.7182 20.5695C45.9826 23.9633 49.7433 27.7247 53.1374 25.9887C53.3447 25.8826 53.5513 25.757 53.7558 25.6147C53.7997 25.86 53.8569 26.0948 53.9287 26.3166C55.1012 29.9441 60.4202 29.9436 61.5926 26.3166C61.6641 26.095 61.7215 25.86 61.7654 25.6147C61.9699 25.757 62.1765 25.8826 62.3838 25.9887C65.778 27.7247 69.5388 23.9633 67.803 20.5695C67.6969 20.3622 67.5713 20.1556 67.429 19.9509C67.6743 19.907 67.9091 19.8498 68.1308 19.7781C71.7583 18.6056 71.7579 13.2866 68.1308 12.1142Z" fill="#B3DAFE"/>
<path d="M68.1314 12.1136C67.9091 12.0433 67.6736 11.9861 67.4284 11.9419C67.5706 11.7375 67.6966 11.5298 67.8028 11.3223C69.3297 8.33875 66.6061 5.07078 63.6177 5.50562C64.7359 6.65484 66.1114 9.26859 64.7942 12.4381C64.7697 12.4972 64.7413 12.5548 64.7098 12.6117C64.5853 12.8375 64.7088 13.1186 64.9575 13.1861C65.0125 13.2009 65.067 13.2156 65.1213 13.2294C68.1461 13.9994 68.0395 17.3902 65.3266 18.1686C65.2709 18.1845 65.2145 18.2005 65.1575 18.2161C64.9038 18.2856 64.7864 18.5719 64.9148 18.8016C64.9444 18.8542 64.9727 18.907 64.9995 18.9598C66.7358 22.3522 64.4608 25.0481 60.9541 23.7684C60.9073 23.7514 60.8603 23.7239 60.8133 23.69C60.575 23.518 60.2381 23.6573 60.1892 23.9472C60.18 24.0016 60.1712 24.0522 60.1628 24.097C59.5206 27.565 56.2411 27.6297 54.7812 27.7834C56.7038 29.8498 60.6078 29.3611 61.592 26.317C61.6639 26.0947 61.7211 25.8594 61.7653 25.6141C61.9697 25.7562 62.1756 25.8822 62.3833 25.9884C65.7772 27.7247 69.5389 23.963 67.8028 20.5689C67.6966 20.3612 67.5706 20.1553 67.4284 19.9509C67.6736 19.9067 67.9091 19.8495 68.1314 19.7777C71.7591 18.6056 71.7575 13.2858 68.1314 12.1136Z" fill="#8AC9FE"/>
<path d="M32.6098 12.1136C32.3874 12.0433 32.152 11.9861 31.9068 11.9419C32.049 11.7375 32.1749 11.5298 32.2812 11.3223C33.808 8.33875 31.0845 5.07078 28.096 5.50562C29.2143 6.65484 30.5898 9.26859 29.2726 12.4381C29.248 12.4972 29.2196 12.5548 29.1882 12.6117C29.0637 12.8375 29.1871 13.1186 29.4359 13.1861C29.4909 13.2009 29.5454 13.2156 29.5996 13.2294C32.6245 13.9994 32.5179 17.3902 29.8049 18.1686C29.7493 18.1845 29.6929 18.2005 29.6359 18.2161C29.3821 18.2856 29.2648 18.5719 29.3932 18.8016C29.4227 18.8542 29.451 18.907 29.4779 18.9598C31.2141 22.3522 28.9391 25.0481 25.4326 23.7684C25.3859 23.7514 25.3388 23.7239 25.2918 23.69C25.0535 23.518 24.7166 23.6573 24.6677 23.9472C24.6585 24.0016 24.6498 24.0522 24.6413 24.097C23.9991 27.565 20.7196 27.6297 19.2598 27.7834C21.1823 29.8498 25.0863 29.3611 26.0705 26.317C26.1424 26.0947 26.1996 25.8594 26.2438 25.6141C26.4482 25.7562 26.6541 25.8822 26.8618 25.9884C30.2557 27.7247 34.0174 23.963 32.2813 20.5689C32.1751 20.3612 32.0491 20.1553 31.907 19.9509C32.1521 19.9067 32.3876 19.8495 32.6099 19.7777C36.2374 18.6056 36.2359 13.2858 32.6098 12.1136Z" fill="#8AC9FE"/>
<path d="M22.2391 20.5467C24.7799 20.5467 26.8396 18.487 26.8396 15.9462C26.8396 13.4055 24.7799 11.3458 22.2391 11.3458C19.6984 11.3458 17.6387 13.4055 17.6387 15.9462C17.6387 18.487 19.6984 20.5467 22.2391 20.5467Z" fill="#A7EEDC"/>
<path d="M26.8391 15.9462C26.8391 18.4867 24.7792 20.5467 22.2386 20.5467C20.5531 20.5467 19.0784 19.6394 18.2773 18.2873C18.7694 18.4672 19.3008 18.5653 19.855 18.5653C22.3955 18.5653 24.4555 16.5055 24.4555 13.9648C24.4555 13.1098 24.2217 12.3105 23.8163 11.6237C25.5803 12.2678 26.8391 13.9598 26.8391 15.9462Z" fill="#86E8D0"/>
<path d="M57.7606 20.5467C60.3014 20.5467 62.3611 18.487 62.3611 15.9462C62.3611 13.4055 60.3014 11.3458 57.7606 11.3458C55.2199 11.3458 53.1602 13.4055 53.1602 15.9462C53.1602 18.487 55.2199 20.5467 57.7606 20.5467Z" fill="#A7EEDC"/>
<path d="M62.3605 15.9456C62.3605 18.4861 60.3007 20.5461 57.7601 20.5461C56.0746 20.5461 54.5999 19.6387 53.7988 18.2867C54.2909 18.4666 54.8223 18.5647 55.3765 18.5647C57.917 18.5647 59.977 16.5048 59.977 13.9642C59.977 13.1092 59.7432 12.3098 59.3377 11.6231C61.1016 12.2673 62.3605 13.9594 62.3605 15.9456Z" fill="#86E8D0"/>
<path d="M54.6987 18.6611C53.6654 15.4642 48.9773 15.4639 47.9439 18.6611C47.2715 20.7413 48.037 24.1442 49.1243 25.9381H53.5184C54.6056 24.1444 55.3711 20.7414 54.6987 18.6611Z" fill="#EE6161"/>
<path d="M54.6987 36.9414C53.6654 40.1383 48.9773 40.1386 47.9439 36.9414C47.2715 34.8613 48.037 31.4583 49.1243 29.6644H53.5184C54.6056 31.4581 55.3711 34.8611 54.6987 36.9414Z" fill="#EE6161"/>
<path d="M42.181 24.4239C38.9841 25.4572 38.9838 30.1453 42.181 31.1787C44.2611 31.8511 47.6641 31.0856 49.458 29.9983V25.6042C47.6641 24.5169 44.2611 23.7514 42.181 24.4239Z" fill="#EE6161"/>
<path d="M60.4606 24.4239C63.6575 25.4572 63.6578 30.1453 60.4606 31.1787C58.3805 31.8511 54.9775 31.0856 53.1836 29.9983V25.6042C54.9775 24.5169 58.3805 23.7514 60.4606 24.4239Z" fill="#EE6161"/>
<path d="M47.2462 18.95C44.2551 17.4202 40.9398 20.7348 42.4698 23.7264C43.4653 25.6728 46.4128 27.5378 48.4501 28.0373L51.5571 24.9303C51.0576 22.893 49.1926 19.9455 47.2462 18.95Z" fill="#F79595"/>
<path d="M60.1713 31.8761C61.7012 34.8672 58.3865 38.1825 55.3949 36.6525C53.4485 35.657 51.5835 32.7095 51.084 30.6722L54.191 27.5652C56.2284 28.0647 59.1759 29.9297 60.1713 31.8761Z" fill="#F79595"/>
<path d="M51.5565 24.9308L49.5816 26.9056C48.8918 24.9389 47.2127 22.4802 45.4684 21.5875C44.2962 20.9875 43.0749 21.133 42.1152 21.7102C42.4193 19.4852 44.9304 17.7653 47.2454 18.9505C49.1924 19.9461 51.0579 22.8937 51.5565 24.9308Z" fill="#F47C7C"/>
<path d="M57.8465 36.9173C58.3402 35.9872 58.4334 34.8411 57.871 33.7392C56.9293 31.8984 54.2434 30.1311 52.2324 29.523L54.191 27.5644C56.2281 28.0645 59.1757 29.93 60.1712 31.8755C61.2781 34.0384 59.8509 36.3697 57.8465 36.9173Z" fill="#F47C7C"/>
<path d="M42.4698 31.8761C40.9399 34.8672 44.2546 38.1825 47.2462 36.6525C49.1926 35.657 51.0576 32.7095 51.5571 30.6722L48.4501 27.5652C46.4127 28.0647 43.4652 29.9297 42.4698 31.8761Z" fill="#F79595"/>
<path d="M55.3969 18.95C58.388 17.4202 61.7033 20.7348 60.1733 23.7264C59.1778 25.6728 56.2303 27.5378 54.193 28.0373L51.0859 24.9303C51.5853 22.893 53.4503 19.9455 55.3969 18.95Z" fill="#F79595"/>
<path d="M54.1467 27.9606L52.1719 25.9858C54.1386 25.2959 56.5973 23.6169 57.49 21.8725C58.09 20.7003 57.9445 19.4791 57.3673 18.5194C59.5923 18.8234 61.3122 21.3345 60.127 23.6495C59.1314 25.5967 56.1838 27.462 54.1467 27.9606Z" fill="#F47C7C"/>
<path d="M42.1602 34.2514C43.0903 34.7452 44.2364 34.8383 45.3383 34.2759C47.1791 33.3342 48.9464 30.6483 49.5545 28.6373L51.5131 30.5959C51.013 32.633 49.1475 35.5806 47.202 36.5761C45.0391 37.683 42.7078 36.2558 42.1602 34.2514Z" fill="#F47C7C"/>
<path d="M51.3203 31.8559C53.5597 31.8559 55.375 30.0406 55.375 27.8013C55.375 25.5619 53.5597 23.7466 51.3203 23.7466C49.081 23.7466 47.2656 25.5619 47.2656 27.8013C47.2656 30.0406 49.081 31.8559 51.3203 31.8559Z" fill="#FEE97D"/>
<path d="M55.3752 27.8016C55.3752 30.0412 53.5605 31.8559 51.3209 31.8559C49.6288 31.8559 48.1787 30.8194 47.5723 29.3464C48.079 29.5769 48.6398 29.7028 49.2316 29.7028C51.4713 29.7028 53.286 27.8866 53.286 25.6484C53.286 25.1008 53.1782 24.5792 52.9802 24.1019C54.3927 24.7345 55.3752 26.1536 55.3752 27.8016Z" fill="#FEDF30"/>
<path d="M32.0542 18.6611C31.0209 15.4642 26.3328 15.4639 25.2993 18.6611C24.627 20.7413 25.3925 24.1442 26.4798 25.9381H30.8739C31.9612 24.1444 32.7267 20.7414 32.0542 18.6611Z" fill="#EE6161"/>
<path d="M32.0542 36.9414C31.0209 40.1383 26.3328 40.1386 25.2993 36.9414C24.627 34.8613 25.3925 31.4583 26.4798 29.6644H30.8739C31.9612 31.4581 32.7267 34.8611 32.0542 36.9414Z" fill="#EE6161"/>
<path d="M19.5364 24.4239C16.3396 25.4572 16.3393 30.1453 19.5364 31.1788C21.6166 31.8511 25.0196 31.0856 26.8135 29.9983V25.6042C25.0197 24.5169 21.6168 23.7514 19.5364 24.4239Z" fill="#EE6161"/>
<path d="M37.8161 24.4239C41.013 25.4572 41.0133 30.1453 37.8161 31.1788C35.7359 31.8511 32.333 31.0856 30.5391 29.9983V25.6042C32.333 24.5169 35.7359 23.7514 37.8161 24.4239Z" fill="#EE6161"/>
<path d="M24.6017 18.95C21.6106 17.4202 18.2953 20.7348 19.8253 23.7264C20.8207 25.6728 23.7682 27.5378 25.8056 28.0373L28.9126 24.9303C28.4131 22.893 26.5481 19.9455 24.6017 18.95Z" fill="#F79595"/>
<path d="M37.5287 31.8761C39.0586 34.8672 35.7439 38.1825 32.7523 36.6525C30.8059 35.657 28.9409 32.7095 28.4414 30.6722L31.5484 27.5652C33.5856 28.0647 36.5333 29.9297 37.5287 31.8761Z" fill="#F79595"/>
<path d="M28.9119 24.9308L26.9371 26.9056C26.2473 24.9389 24.5682 22.4802 22.8238 21.5875C21.6516 20.9875 20.4304 21.133 19.4707 21.7102C19.7748 19.4852 22.2859 17.7653 24.6009 18.9505C26.548 19.9461 28.4134 22.8938 28.9119 24.9308Z" fill="#F47C7C"/>
<path d="M35.2039 36.9173C35.6977 35.9872 35.7908 34.8411 35.2284 33.7392C34.2867 31.8984 31.6008 30.1311 29.5898 29.523L31.5484 27.5644C33.5855 28.0645 36.5331 29.93 37.5286 31.8755C38.6353 34.0384 37.2081 36.3697 35.2039 36.9173Z" fill="#F47C7C"/>
<path d="M19.8252 31.8761C18.2954 34.8672 21.6101 38.1825 24.6016 36.6525C26.548 35.657 28.413 32.7095 28.9126 30.6722L25.8055 27.5652C23.7682 28.0647 20.8207 29.9297 19.8252 31.8761Z" fill="#F79595"/>
<path d="M32.7523 18.95C35.7434 17.4202 39.0587 20.7348 37.5287 23.7264C36.5333 25.6728 33.5858 27.5378 31.5484 28.0373L28.4414 24.9303C28.9409 22.893 30.8059 19.9455 32.7523 18.95Z" fill="#F79595"/>
<path d="M31.5022 27.9606L29.5273 25.9858C31.4941 25.2959 33.9528 23.6169 34.8455 21.8725C35.4455 20.7003 35.3 19.4791 34.7228 18.5194C36.9478 18.8234 38.6677 21.3345 37.4825 23.6495C36.4869 25.5967 33.5392 27.462 31.5022 27.9606Z" fill="#F47C7C"/>
<path d="M19.5156 34.2514C20.4458 34.7452 21.5919 34.8383 22.6937 34.2759C24.5345 33.3342 26.3019 30.6483 26.91 28.6373L28.8686 30.5959C28.3684 32.633 26.503 35.5806 24.5575 36.5761C22.3945 37.683 20.0633 36.2558 19.5156 34.2514Z" fill="#F47C7C"/>
<path d="M28.6758 31.8559C30.9151 31.8559 32.7305 30.0406 32.7305 27.8013C32.7305 25.5619 30.9151 23.7466 28.6758 23.7466C26.4364 23.7466 24.6211 25.5619 24.6211 27.8013C24.6211 30.0406 26.4364 31.8559 28.6758 31.8559Z" fill="#FEE97D"/>
<path d="M32.7307 27.8016C32.7307 30.0412 30.916 31.8559 28.6763 31.8559C26.9843 31.8559 25.5341 30.8194 24.9277 29.3464C25.4345 29.5769 25.9952 29.7028 26.5871 29.7028C28.8268 29.7028 30.6415 27.8866 30.6415 25.6484C30.6415 25.1008 30.5337 24.5792 30.3357 24.1019C31.7482 24.7345 32.7307 26.1536 32.7307 27.8016Z" fill="#FEDF30"/>
<path d="M18.7378 42.4683C17.1573 42.4683 15.8763 41.1889 15.8763 39.6084C15.8763 38.8189 16.1962 38.1028 16.7142 37.5848C17.2322 37.0668 17.9468 36.7469 18.7378 36.7469H29.9075C33.0327 36.7469 36.0673 37.7939 38.5294 39.7176L39.8883 40.7801H76.5927C77.37 40.7801 78.0002 41.4103 78.0002 42.1876V57.1172C78.0002 57.8945 77.37 58.5247 76.5927 58.5247H41.7076L40.1364 59.4265C37.2475 61.0847 33.9746 61.9572 30.6436 61.9572H8.11322C6.82228 61.9572 5.7064 60.9794 5.61887 59.6914C5.56863 58.952 5.84932 58.2775 6.32613 57.7992C6.76767 57.3592 7.37773 57.0861 8.05019 57.0861H6.27152C5.59906 57.0861 4.99057 56.8131 4.54902 56.3731C4.10903 55.9316 3.83599 55.3231 3.83599 54.6491C3.83599 53.3041 4.9266 52.2135 6.27152 52.2135H2.81248C2.14002 52.2135 1.53153 51.9405 1.08998 51.5005C0.649994 51.059 0.376953 50.4505 0.376953 49.778C0.376953 48.4315 1.46756 47.3409 2.81248 47.3409H5.88146C5.209 47.3409 4.59895 47.0679 4.1574 46.6279C3.71741 46.1864 3.44437 45.5779 3.44437 44.9054C3.44437 43.5605 4.53498 42.4683 5.88146 42.4683H18.7378Z" fill="#FFE6C6"/>
<path d="M40.4833 55.8308L39.7598 56.246C36.8709 57.9042 33.5981 58.7767 30.2672 58.7767H7.73662C7.09614 58.7767 6.49685 58.5344 6.04673 58.1345C5.73125 58.5896 5.56633 59.1563 5.625 59.764C5.74669 61.0215 6.84994 61.9572 8.11341 61.9572H30.644C33.9749 61.9572 37.2478 61.0847 40.1366 59.4265L41.7077 58.5247H76.5929C77.3702 58.5247 78.0004 57.8945 78.0004 57.1172V55.3443H42.3084C41.668 55.3441 41.0387 55.512 40.4833 55.8308Z" fill="#F8D3AA"/>
<path d="M20.496 56.5284C20.496 55.0799 19.3217 53.9056 17.8732 53.9056H5.77047C5.18679 53.9056 4.63868 53.7028 4.20509 53.3644C3.97246 53.7376 3.83594 54.1768 3.83594 54.6489C3.83594 55.3229 4.10898 55.9314 4.54896 56.373C4.99051 56.813 5.599 57.086 6.27146 57.086H20.496V56.5284Z" fill="#F8D3AA"/>
<path d="M20.4962 51.6558C20.4962 50.2072 19.3219 49.033 17.8734 49.033H2.32834C1.73966 49.033 1.18718 48.8264 0.751877 48.4829C0.515658 48.8583 0.376953 49.3014 0.376953 49.7779C0.376953 50.4503 0.649994 51.0588 1.08998 51.5004C1.53153 51.9403 2.14002 52.2134 2.81248 52.2134H20.496V51.6558H20.4962Z" fill="#F8D3AA"/>
<path d="M20.4952 46.7953C20.4952 45.3468 19.3209 44.1726 17.8724 44.1726H5.33218C4.76051 44.1726 4.22238 43.9785 3.79301 43.6527C3.57255 44.0192 3.44336 44.4469 3.44336 44.9054C3.44336 45.5779 3.7164 46.1864 4.15639 46.6279C4.59793 47.0679 5.20798 47.3409 5.88045 47.3409H5.4648C5.54546 47.3487 5.62675 47.3531 5.70898 47.3531H20.4952V46.7953Z" fill="#F8D3AA"/>
<path d="M28.2146 41.6816C28.2146 40.3597 27.1429 39.2879 25.8209 39.2879H17.6738C17.0554 39.2879 16.4767 39.0605 16.0322 38.6849C15.8763 39.1419 15.8265 39.6476 15.9351 40.178C16.2113 41.5264 17.4403 42.4685 18.8165 42.4685H28.2146V41.6816Z" fill="#F8D3AA"/>
</g>
<defs>
<clipPath id="clip0">
<rect width="78" height="78" fill="white"/>
</clipPath>
</defs>
</svg>
