<svg width="32" height="32" viewBox="0 0 32 32" fill="none" xmlns="http://www.w3.org/2000/svg">
<path d="M27.312 4.68422C21.0627 -1.56322 10.932 -1.56172 4.68459 4.68766C-1.56285 10.937 -1.56135 21.0677 4.68802 27.3151C10.9374 33.5625 21.068 33.561 27.3155 27.3117C30.3158 24.3103 32.001 20.24 32 15.9962C31.9991 11.7531 30.3128 7.68409 27.312 4.68422ZM24.2315 22.2875C24.2308 22.2882 24.2301 22.2889 24.2293 22.2896V22.2843L23.4186 23.0896C22.3702 24.1513 20.8433 24.5881 19.392 24.2416C17.9298 23.8502 16.5398 23.2272 15.2746 22.3963C14.0993 21.6451 13.01 20.767 12.0266 19.7776C11.1218 18.8794 10.309 17.8932 9.59996 16.8336C8.82446 15.6935 8.21065 14.4515 7.77596 13.1429C7.27765 11.6057 7.69059 9.91885 8.84265 8.78559L9.79196 7.83628C10.0559 7.57116 10.4848 7.57022 10.7498 7.83416C10.7505 7.83484 10.7513 7.83553 10.752 7.83628L13.7493 10.8336C14.0144 11.0975 14.0153 11.5264 13.7514 11.7915C13.7507 11.7922 13.75 11.7928 13.7493 11.7936L11.9893 13.5536C11.4843 14.0531 11.4208 14.8468 11.84 15.4203C12.4765 16.2939 13.181 17.116 13.9466 17.879C14.8003 18.7363 15.7284 19.5163 16.72 20.2097C17.2929 20.6093 18.0696 20.5419 18.5653 20.0497L20.2666 18.3217C20.5305 18.0565 20.9594 18.0556 21.2245 18.3195C21.2251 18.3202 21.2258 18.3209 21.2266 18.3217L24.2293 21.3297C24.4945 21.5935 24.4954 22.0223 24.2315 22.2875Z" fill="#F55F4B"/>
</svg>
